<svg width="27" height="23" viewBox="0 0 27 23" fill="none" xmlns="http://www.w3.org/2000/svg">
<path d="M15.8438 14.2949C15.4824 13.1914 15.1016 12.1758 14.7012 11.248C14.3008 10.3105 13.9053 9.4707 13.5146 8.72852C13.1338 7.97656 12.7676 7.32227 12.416 6.76562C12.0742 6.19922 11.7812 5.73535 11.5371 5.37402C10.6289 6.91699 9.81348 8.42578 9.09082 9.90039C8.37793 11.3652 7.74316 12.8301 7.18652 14.2949C7.96777 14.3828 8.71973 14.4561 9.44238 14.5146C10.165 14.5635 10.8828 14.5879 11.5957 14.5879C12.2988 14.5879 12.9971 14.5635 13.6904 14.5146C14.3936 14.4561 15.1113 14.3828 15.8438 14.2949ZM25.834 22.3369C25.8145 22.3369 25.7949 22.332 25.7754 22.3223C25.7559 22.3223 25.7363 22.3125 25.7168 22.293C24.8281 22.1562 23.9492 22.0586 23.0801 22C22.2207 21.9414 21.3613 21.9121 20.502 21.9121C19.6523 21.9121 18.8125 21.9414 17.9824 22C17.1621 22.0586 16.3418 22.1562 15.5215 22.293C15.502 22.3125 15.4824 22.3223 15.4629 22.3223C15.4434 22.332 15.4238 22.3369 15.4043 22.3369C15.1895 22.3369 15.0039 22.2539 14.8477 22.0879C14.7012 21.9219 14.6279 21.7412 14.6279 21.5459C14.6279 21.3701 14.6865 21.209 14.8037 21.0625C14.9307 20.916 15.0918 20.8281 15.2871 20.7988C15.6777 20.7207 16.0732 20.6621 16.4736 20.623C16.874 20.5742 17.2842 20.5254 17.7041 20.4766C17.6553 20.291 17.5967 20.0615 17.5283 19.7881C17.46 19.5049 17.3672 19.1729 17.25 18.792C17.1426 18.4111 17.0107 17.9717 16.8545 17.4736C16.708 16.9658 16.5322 16.3945 16.3271 15.7598C15.4971 15.877 14.6963 15.9697 13.9248 16.0381C13.1533 16.0967 12.377 16.126 11.5957 16.126C10.8047 16.126 10.0039 16.0967 9.19336 16.0381C8.38281 15.9697 7.5332 15.877 6.64453 15.7598C6.12695 17.3027 5.70703 18.8311 5.38477 20.3447C5.99023 20.3643 6.5957 20.4131 7.20117 20.4912C7.81641 20.5596 8.44141 20.6621 9.07617 20.7988C9.25195 20.8281 9.39355 20.916 9.50098 21.0625C9.61816 21.209 9.67676 21.3701 9.67676 21.5459C9.67676 21.7705 9.58887 21.9561 9.41309 22.1025C9.24707 22.2588 9.07129 22.3369 8.88574 22.3369C8.85645 22.3369 8.83203 22.3271 8.8125 22.3076C8.79297 22.2979 8.76855 22.293 8.73926 22.293C8.09473 22.1562 7.45996 22.0537 6.83496 21.9854C6.21973 21.917 5.60449 21.8828 4.98926 21.8828C4.38379 21.8828 3.78809 21.917 3.20215 21.9854C2.61621 22.0537 2.02051 22.1562 1.41504 22.293C1.38574 22.293 1.36133 22.2979 1.3418 22.3076C1.32227 22.3271 1.29785 22.3369 1.26855 22.3369C1.04395 22.3369 0.858398 22.2588 0.711914 22.1025C0.56543 21.9463 0.492188 21.7607 0.492188 21.5459C0.492188 21.3701 0.545898 21.2139 0.65332 21.0771C0.760742 20.9404 0.907227 20.8477 1.09277 20.7988C1.53223 20.6914 1.97168 20.6084 2.41113 20.5498C2.86035 20.4912 3.31934 20.4424 3.78809 20.4033C4.12012 18.792 4.55469 17.1807 5.0918 15.5693C5.62891 13.958 6.26855 12.332 7.01074 10.6914C7.7627 9.04102 8.62207 7.36621 9.58887 5.66699C10.5557 3.96777 11.6445 2.21973 12.8555 0.422852C12.9434 0.305664 13.041 0.222656 13.1484 0.173828C13.2656 0.125 13.3779 0.100586 13.4854 0.100586C13.6025 0.100586 13.7148 0.125 13.8223 0.173828C13.9297 0.212891 14.0176 0.276367 14.0859 0.364258C16.1367 2.98145 17.8945 5.9502 19.3594 9.27051C20.834 12.5811 22.0449 16.3066 22.9922 20.4473C23.9883 20.5352 24.9795 20.6523 25.9658 20.7988C26.1611 20.8281 26.3174 20.916 26.4346 21.0625C26.5615 21.209 26.625 21.3701 26.625 21.5459C26.625 21.7607 26.5371 21.9463 26.3613 22.1025C26.1953 22.2588 26.0195 22.3369 25.834 22.3369Z" fill="#9399D4"/>
</svg>
