<svg width="152" height="50" viewBox="0 0 152 50" fill="none" xmlns="http://www.w3.org/2000/svg">
<path d="M5.4 19.36C4.8 19.2 4.12 18.88 3.36 18.4C2.6 17.88 1.94 17.24 1.38 16.48C0.82 15.68 0.54 14.8 0.54 13.84C0.54 13.4 0.62 12.96 0.78 12.52C0.78 12.48 0.78 12.34 0.78 12.1C0.82 11.86 0.86 11.66 0.9 11.5C1.34 9.5 2.36 7.86 3.96 6.58C5.56 5.26 7.52 4.24 9.84 3.52C12.16 2.8 14.58 2.36 17.1 2.2C17.62 2.16 18.12 2.14 18.6 2.14C19.08 2.1 19.54 2.08 19.98 2.08C22.5 2.08 24.8 2.26 26.88 2.62C28.96 2.94 31.02 3.28 33.06 3.64C35.1 4 37.32 4.22 39.72 4.3C40.24 3.66 40.74 3.2 41.22 2.92C41.74 2.6 42.14 2.42 42.42 2.38C42.54 2.34 42.7 2.32 42.9 2.32C43.3 2.32 43.66 2.42 43.98 2.62C44.3 2.82 44.46 3.08 44.46 3.4C44.46 3.68 44.3 3.98 43.98 4.3C43.7 4.58 43.3 4.9 42.78 5.26C42.26 5.62 41.72 6.08 41.16 6.64C40.44 7.32 39.78 8.1 39.18 8.98C38.62 9.82 38.34 10.66 38.34 11.5C38.34 12.14 38.5 12.68 38.82 13.12C38.86 13.16 38.88 13.22 38.88 13.3C38.88 13.58 38.72 13.72 38.4 13.72C38.16 13.72 37.92 13.58 37.68 13.3C37.32 12.86 37.14 12 37.14 10.72C37.14 10.04 37.22 9.32 37.38 8.56C37.54 7.8 37.78 7.1 38.1 6.46C38.26 6.22 38.4 6 38.52 5.8C38.64 5.56 38.78 5.34 38.94 5.14C36.02 5.26 33.16 5.16 30.36 4.84C27.56 4.48 24.74 4.3 21.9 4.3C20.3 4.3 18.46 4.46 16.38 4.78C14.3 5.1 12.26 5.62 10.26 6.34C8.26 7.02 6.54 7.98 5.1 9.22C3.66 10.42 2.74 11.92 2.34 13.72C2.3 13.88 2.26 14.02 2.22 14.14C2.22 14.26 2.22 14.38 2.22 14.5C2.22 15.26 2.44 15.9 2.88 16.42C3.36 16.94 3.9 17.38 4.5 17.74C5.1 18.06 5.56 18.36 5.88 18.64C6.16 18.8 6.3 18.96 6.3 19.12C6.3 19.28 6.2 19.38 6 19.42C5.84 19.46 5.64 19.44 5.4 19.36ZM11.34 38.62C11.22 38.62 10.98 38.58 10.62 38.5C10.26 38.42 9.92 38.32 9.6 38.2C9.28 38.08 9.1 37.94 9.06 37.78C8.98 36.98 9.18 35.84 9.66 34.36C10.18 32.88 10.86 31.24 11.7 29.44C12.58 27.64 13.48 25.88 14.4 24.16C13.32 24.28 12.5 24.34 11.94 24.34C11.62 24.34 11.28 24.2 10.92 23.92C10.6 23.64 10.44 23.26 10.44 22.78C10.44 22.38 10.66 22.04 11.1 21.76C11.54 21.44 12.02 21.2 12.54 21.04C13.1 20.88 13.5 20.8 13.74 20.8C14.26 20.8 14.62 21 14.82 21.4C15.02 21.76 15.22 21.94 15.42 21.94H15.66C16.26 20.82 16.78 19.82 17.22 18.94C17.7 18.06 18.08 17.36 18.36 16.84C18.68 16.16 18.84 15.6 18.84 15.16C18.84 14.96 18.82 14.82 18.78 14.74C18.78 14.62 18.76 14.52 18.72 14.44C18.8 13.96 19.1 13.32 19.62 12.52C20.14 11.72 20.78 10.92 21.54 10.12C22.3 9.32 23.1 8.66 23.94 8.14C24.82 7.58 25.66 7.3 26.46 7.3C26.7 7.3 27.12 7.4 27.72 7.6C28.32 7.76 28.86 8.04 29.34 8.44C29.82 8.84 30.02 9.36 29.94 10C29.66 9.8 29.42 9.7 29.22 9.7C28.14 9.7 26.96 10.28 25.68 11.44C24.4 12.6 23.1 14.12 21.78 16C20.46 17.84 19.2 19.8 18 21.88C18.68 21.8 19.36 21.72 20.04 21.64C20.72 21.56 21.4 21.46 22.08 21.34C23.52 21.14 25 20.94 26.52 20.74C28.08 20.54 29.56 20.44 30.96 20.44C31.2 20.44 31.46 20.48 31.74 20.56C32.02 20.6 32.16 20.7 32.16 20.86C32.16 20.94 32.06 21.06 31.86 21.22C31.7 21.34 31.38 21.5 30.9 21.7C30.26 21.94 29.14 22.2 27.54 22.48C25.94 22.76 24.16 23.04 22.2 23.32C20.28 23.56 18.46 23.78 16.74 23.98C15.74 25.86 14.84 27.64 14.04 29.32C13.24 30.96 12.64 32.28 12.24 33.28C12.08 33.68 11.96 34.04 11.88 34.36C11.8 34.68 11.76 34.94 11.76 35.14C11.76 35.7 11.96 35.98 12.36 35.98C12.64 35.98 12.94 35.88 13.26 35.68C13.58 35.44 13.88 35.16 14.16 34.84C14.6 34.32 15 33.84 15.36 33.4C15.72 32.92 16.04 32.72 16.32 32.8C16.36 32.84 16.38 32.9 16.38 32.98C16.38 33.22 16.26 33.5 16.02 33.82C15.78 34.14 15.64 34.32 15.6 34.36C15.28 34.76 14.88 35.3 14.4 35.98C13.96 36.66 13.48 37.26 12.96 37.78C12.44 38.34 11.9 38.62 11.34 38.62ZM46.2778 41.98C44.9578 41.98 43.6978 41.76 42.4978 41.32C41.2978 40.88 40.3178 40.18 39.5578 39.22C38.7978 38.26 38.4178 37.04 38.4178 35.56C38.4178 35.2 38.4978 34.88 38.6578 34.6C38.8578 34.28 39.0378 34.12 39.1978 34.12C39.5178 34.12 39.6778 34.6 39.6778 35.56C39.6778 36.92 40.2578 37.98 41.4178 38.74C42.3378 39.34 43.5778 39.64 45.1378 39.64C46.6978 39.64 48.3178 39.36 49.9978 38.8C51.6778 38.24 53.2778 37.44 54.7978 36.4C56.5978 35.2 58.5978 33.48 60.7978 31.24C63.0378 28.96 65.3578 26.48 67.7578 23.8C65.8378 23.6 63.9178 23.38 61.9978 23.14C60.1178 22.9 58.2178 22.78 56.2978 22.78C55.0178 22.78 53.7378 22.92 52.4578 23.2C51.1778 23.44 50.0178 23.92 48.9778 24.64C47.9378 25.36 47.1578 26.42 46.6378 27.82C46.5978 27.98 46.5378 28.16 46.4578 28.36C46.4178 28.56 46.3978 28.76 46.3978 28.96C46.3978 29.36 46.4978 29.72 46.6978 30.04C46.7778 30.28 46.8178 30.42 46.8178 30.46C46.8178 30.82 46.6578 31 46.3378 31C46.0578 31 45.8378 30.86 45.6778 30.58C45.2778 29.86 45.0778 28.94 45.0778 27.82C45.0778 25.7 45.4578 24.08 46.2178 22.96C47.0178 21.84 48.0778 21.08 49.3978 20.68C50.7178 20.28 52.1378 20.08 53.6578 20.08C54.3378 20.08 55.0378 20.12 55.7578 20.2C56.5178 20.24 57.2578 20.3 57.9778 20.38C59.7378 20.54 61.5578 20.82 63.4378 21.22C65.3178 21.58 67.1978 21.96 69.0778 22.36C71.1578 19.92 73.1978 17.46 75.1978 14.98C77.2378 12.5 79.1378 10.16 80.8978 7.96C82.6578 5.72 84.1578 3.8 85.3978 2.2C85.4378 2.08 85.5178 2 85.6378 1.96C85.7178 1.88 85.7778 1.84 85.8178 1.84C86.2578 1.6 86.8178 1.4 87.4978 1.24C88.1778 1.04 88.6378 0.939999 88.8778 0.939999C89.2778 0.939999 89.4778 1.16 89.4778 1.6C89.4778 1.72 89.3778 1.94 89.1778 2.26C87.1778 5.66 85.4578 9.14 84.0178 12.7C82.6178 16.26 81.3778 19.92 80.2978 23.68L80.1778 24.1C80.4178 24.1 80.6578 24.12 80.8978 24.16C81.1778 24.16 81.4178 24.16 81.6178 24.16C83.3378 24.28 84.7978 24.1 85.9978 23.62C86.8778 23.3 87.4778 22.84 87.7978 22.24C87.9178 22.08 88.0178 22 88.0978 22C88.2978 22 88.4378 22.12 88.5178 22.36C88.5978 22.56 88.5778 22.76 88.4578 22.96C88.0178 23.72 87.2378 24.28 86.1178 24.64C85.4778 24.92 84.7378 25.1 83.8978 25.18C83.0978 25.26 82.2578 25.28 81.3778 25.24H81.0178L80.2978 25.18H79.9378C79.3378 27.38 78.9178 29.66 78.6778 32.02C78.6378 32.22 78.6178 32.42 78.6178 32.62C78.6178 32.78 78.6178 32.96 78.6178 33.16C78.6178 35.44 79.2378 36.58 80.4778 36.58C81.2778 36.58 82.2178 36.22 83.2978 35.5C84.4178 34.78 85.5378 33.9 86.6578 32.86C87.8178 31.82 88.8578 30.8 89.7778 29.8C90.6978 28.76 91.3778 27.94 91.8178 27.34C91.8978 27.26 92.0178 27.22 92.1778 27.22C92.5778 27.22 92.6978 27.44 92.5378 27.88C92.4578 28 92.1178 28.48 91.5178 29.32C90.9178 30.12 90.0978 31.1 89.0578 32.26C88.0178 33.38 86.7978 34.5 85.3978 35.62C84.2778 36.5 83.1578 37.06 82.0378 37.3C80.9578 37.58 80.1378 37.72 79.5778 37.72C78.4578 37.72 77.5578 37.22 76.8778 36.22C76.2378 35.18 75.9178 33.86 75.9178 32.26C75.9178 31.1 76.0378 29.9 76.2778 28.66C76.5178 27.42 76.7978 26.18 77.1178 24.94C75.9578 24.82 74.7778 24.7 73.5778 24.58C72.3778 24.42 71.1778 24.26 69.9778 24.1C67.5778 27.02 65.1778 29.76 62.7778 32.32C60.4178 34.84 58.1978 36.88 56.1178 38.44C54.5578 39.56 52.9378 40.42 51.2578 41.02C49.6178 41.66 47.9578 41.98 46.2778 41.98ZM77.3578 23.8C78.0778 21 78.9178 18.2 79.8778 15.4C80.8778 12.56 81.8578 9.98 82.8178 7.66L83.1178 6.94C81.3978 9.34 79.4978 11.9 77.4178 14.62C75.3778 17.34 73.2978 20.04 71.1778 22.72C72.2178 22.92 73.2578 23.12 74.2978 23.32C75.3378 23.48 76.3578 23.64 77.3578 23.8ZM143.999 49.84C143.719 49.88 143.439 49.9 143.159 49.9C142.879 49.9 142.599 49.9 142.319 49.9C139.879 49.9 137.579 49.52 135.419 48.76C133.259 48.04 131.219 47.1 129.299 45.94C127.379 44.82 125.539 43.62 123.779 42.34C122.019 41.06 120.339 39.86 118.739 38.74C117.899 38.94 117.079 39.1 116.279 39.22C115.479 39.34 114.639 39.4 113.759 39.4C110.599 39.4 107.779 38.82 105.299 37.66C102.819 36.5 100.859 34.82 99.4186 32.62C97.9786 30.42 97.2586 27.78 97.2586 24.7C97.2586 21.66 97.8386 18.82 98.9986 16.18C100.199 13.5 101.759 11.1 103.679 8.98C105.639 6.86 107.779 5.1 110.099 3.7C112.459 2.3 114.799 1.34 117.119 0.819997C117.799 0.659997 118.459 0.539997 119.099 0.459998C119.779 0.379999 120.419 0.34 121.019 0.34C123.499 0.34 125.559 0.9 127.199 2.02C128.839 3.1 130.059 4.56 130.859 6.4C131.659 8.24 132.059 10.28 132.059 12.52C132.059 14.48 131.759 16.5 131.159 18.58C130.559 20.62 129.639 22.58 128.399 24.46C126.399 27.62 124.079 29.98 121.439 31.54C118.799 33.1 116.179 34.1 113.579 34.54C113.779 34.62 114.059 34.74 114.419 34.9C114.779 35.02 115.039 35.12 115.199 35.2C115.719 35.48 116.239 35.8 116.759 36.16C117.319 36.48 117.859 36.8 118.379 37.12C121.219 36.24 123.799 34.76 126.119 32.68C128.439 30.6 130.419 28.16 132.059 25.36C133.739 22.56 134.939 19.66 135.659 16.66C136.219 14.5 136.499 12.46 136.499 10.54C136.499 8.26 136.039 6.3 135.119 4.66C134.239 3.02 132.759 2.12 130.679 1.96C130.039 1.92 129.719 1.76 129.719 1.48C129.719 1.32 129.839 1.18 130.079 1.06C130.359 0.939997 130.659 0.899997 130.979 0.939999C133.859 1.38 135.879 2.7 137.039 4.9C138.239 7.06 138.739 9.62 138.539 12.58C138.419 15.1 137.859 17.68 136.859 20.32C135.859 22.92 134.519 25.42 132.839 27.82C131.199 30.22 129.279 32.34 127.079 34.18C124.919 35.98 122.599 37.34 120.119 38.26C122.119 39.54 124.219 40.82 126.419 42.1C128.659 43.42 130.979 44.52 133.379 45.4C135.779 46.28 138.279 46.72 140.879 46.72C141.199 46.72 141.499 46.72 141.779 46.72C142.099 46.72 142.399 46.7 142.679 46.66C143.719 46.58 144.799 46.34 145.919 45.94C147.079 45.54 148.059 44.96 148.859 44.2C149.699 43.44 150.119 42.52 150.119 41.44C150.119 40.76 149.919 40.04 149.519 39.28C149.399 39.08 149.339 38.92 149.339 38.8C149.339 38.52 149.479 38.38 149.759 38.38C150.159 38.38 150.459 38.6 150.659 39.04C151.099 39.88 151.379 40.7 151.499 41.5C151.619 42.3 151.659 43.08 151.619 43.84C151.579 45.24 150.879 46.54 149.519 47.74C148.199 48.94 146.359 49.64 143.999 49.84ZM114.059 37.96C114.579 37.92 115.079 37.86 115.559 37.78C116.039 37.7 116.519 37.62 116.999 37.54C115.399 36.42 113.859 35.6 112.379 35.08C111.939 35.2 111.299 35.38 110.459 35.62C109.619 35.86 108.939 35.96 108.419 35.92C107.899 35.84 107.519 35.66 107.279 35.38C107.039 35.06 106.919 34.74 106.919 34.42C106.919 34.1 107.059 33.78 107.339 33.46C107.619 33.14 108.019 32.96 108.539 32.92C108.859 32.92 109.459 33 110.339 33.16C111.219 33.28 112.099 33.34 112.979 33.34C115.459 32.62 117.719 31.42 119.759 29.74C121.799 28.06 123.559 26.12 125.039 23.92C126.559 21.68 127.719 19.38 128.519 17.02C129.359 14.62 129.779 12.38 129.779 10.3C129.779 7.82 129.139 5.76 127.859 4.12C126.579 2.44 124.519 1.6 121.679 1.6C121.159 1.6 120.579 1.64 119.939 1.72C119.299 1.8 118.639 1.92 117.959 2.08C116.319 2.48 114.659 3.26 112.979 4.42C111.339 5.54 109.739 6.94 108.179 8.62C106.659 10.3 105.299 12.14 104.099 14.14C102.939 16.14 101.999 18.2 101.279 20.32C100.599 22.4 100.259 24.44 100.259 26.44C100.259 30.2 101.359 33.08 103.559 35.08C105.759 37.04 108.679 38.02 112.319 38.02C112.639 38.02 112.939 38.02 113.219 38.02C113.499 38.02 113.779 38 114.059 37.96Z" fill="black"/>
</svg>
