<svg width="151" height="45" viewBox="0 0 151 45" fill="none" xmlns="http://www.w3.org/2000/svg">
<path d="M5.72 44.74C5.04 44.74 4.4 44.66 3.8 44.5C2.16 43.94 1.14 42.82 0.74 41.14C0.7 41.02 0.68 40.84 0.68 40.6C0.68 40.04 0.8 39.76 1.04 39.76C1.24 39.76 1.48 40.12 1.76 40.84C2.04 41.96 2.72 42.64 3.8 42.88C4.04 42.96 4.34 43.02 4.7 43.06C5.06 43.1 5.4 43.12 5.72 43.12C7.2 43.12 8.62 42.7 9.98 41.86C11.3 41.02 12.52 39.94 13.64 38.62C14.8 37.34 15.84 36.02 16.76 34.66C17.68 33.26 18.44 32 19.04 30.88C20.8 27.52 22.28 24.12 23.48 20.68C24.68 17.2 25.84 13.58 26.96 9.82C25.8 10.86 24.52 11.64 23.12 12.16C21.72 12.68 20.4 13 19.16 13.12H19.1C18.7 13.12 18.5 12.98 18.5 12.7C18.5 12.38 18.74 12.18 19.22 12.1C20.38 11.9 21.58 11.42 22.82 10.66C24.06 9.86 25.2 8.86 26.24 7.66C27.32 6.46 28.14 5.16 28.7 3.76C28.78 3.52 29.06 3.34 29.54 3.22C30.02 3.06 30.5 2.98 30.98 2.98C31.42 2.98 31.8 3.04 32.12 3.16C32.48 3.28 32.62 3.48 32.54 3.76C32.38 4.2 32.24 4.88 32.12 5.8C32.04 6.72 31.96 7.46 31.88 8.02C31.76 8.74 31.7 9.78 31.7 11.14C31.7 12.86 31.8 14.88 32 17.2C32.2 19.52 32.52 21.9 32.96 24.34C33.44 26.78 34.04 29.06 34.76 31.18C35.48 33.3 36.34 35.02 37.34 36.34C38.38 37.62 39.58 38.26 40.94 38.26C42.34 38.26 43.66 37.58 44.9 36.22C46.14 34.86 47.26 33.08 48.26 30.88C49.26 28.68 50.12 26.3 50.84 23.74C51.56 21.14 52.1 18.62 52.46 16.18C52.86 13.7 53.06 11.54 53.06 9.7C53.06 8.7 53 7.84 52.88 7.12C52.72 6.04 52.48 5.12 52.16 4.36C51.88 3.56 51.58 2.74 51.26 1.9V1.84C51.26 1.68 51.42 1.48 51.74 1.24C52.06 0.959998 52.3 0.799998 52.46 0.759998C53.06 0.759998 53.6 1.04 54.08 1.6C54.6 2.16 55.08 2.86 55.52 3.7C55.96 4.5 56.4 5.3 56.84 6.1C57.28 6.9 57.76 7.54 58.28 8.02C58.6 8.3 58.84 8.48 59 8.56C59.2 8.64 59.5 8.68 59.9 8.68L60.26 8.5C60.58 8.5 60.8 8.54 60.92 8.62C61.04 8.66 61.12 8.84 61.16 9.16C61.16 9.48 61 9.74 60.68 9.94C60.4 10.14 60.1 10.28 59.78 10.36C59.26 10.36 58.6 10.1 57.8 9.58C57 9.02 56.4 8.58 56 8.26C56.04 8.5 56.06 8.74 56.06 8.98C56.06 9.22 56.06 9.46 56.06 9.7C56.06 11.9 55.78 14.36 55.22 17.08C54.66 19.76 53.88 22.46 52.88 25.18C51.92 27.9 50.78 30.4 49.46 32.68C48.18 34.96 46.78 36.8 45.26 38.2C43.74 39.6 42.16 40.3 40.52 40.3C38.6 40.3 36.96 39.72 35.6 38.56C34.28 37.4 33.16 35.84 32.24 33.88C31.36 31.92 30.66 29.76 30.14 27.4C29.62 25.04 29.26 22.64 29.06 20.2C28.86 17.72 28.76 15.42 28.76 13.3C27.52 16.54 26.28 19.6 25.04 22.48C23.84 25.36 22.44 28.26 20.84 31.18C20.12 32.5 19.24 33.94 18.2 35.5C17.2 37.02 16.06 38.48 14.78 39.88C13.5 41.32 12.1 42.48 10.58 43.36C9.06 44.28 7.44 44.74 5.72 44.74ZM71.9108 37.9C70.1108 37.9 68.5508 37.48 67.2308 36.64C65.9108 35.8 65.2508 34.52 65.2508 32.8C65.2508 31.88 65.5308 30.76 66.0908 29.44C66.4908 28.52 67.2308 27.46 68.3108 26.26C69.3908 25.06 70.6508 23.9 72.0908 22.78C73.5308 21.62 74.9908 20.68 76.4708 19.96C77.9508 19.2 79.2908 18.82 80.4908 18.82C80.9308 18.82 81.3308 18.88 81.6908 19C82.3708 19.24 82.8308 19.62 83.0708 20.14C83.3508 20.66 83.4908 21.2 83.4908 21.76C83.4908 22.28 83.4108 22.78 83.2508 23.26C83.0908 23.74 82.8908 24.16 82.6508 24.52C81.9308 25.6 80.8908 26.56 79.5308 27.4C78.2108 28.24 76.8508 28.9 75.4508 29.38C74.0908 29.86 72.9708 30.14 72.0908 30.22H71.9708C71.4508 30.22 71.1908 30.06 71.1908 29.74C71.1908 29.54 71.3508 29.44 71.6708 29.44C72.6308 29.36 73.8308 28.92 75.2708 28.12C76.7508 27.28 78.0508 26.42 79.1708 25.54C79.6508 25.14 80.2108 24.58 80.8508 23.86C81.5308 23.14 81.8708 22.44 81.8708 21.76C81.8708 21.04 81.5308 20.68 80.8508 20.68C80.4908 20.68 80.1108 20.76 79.7108 20.92C79.3508 21.08 79.0508 21.2 78.8108 21.28C77.6508 21.84 76.3708 22.72 74.9708 23.92C73.5708 25.08 72.2908 26.4 71.1308 27.88C70.0108 29.32 69.2308 30.78 68.7908 32.26C68.6708 32.58 68.5908 32.9 68.5508 33.22C68.5108 33.5 68.4908 33.78 68.4908 34.06C68.4908 35.02 68.7908 35.7 69.3908 36.1C70.0308 36.5 70.7908 36.7 71.6708 36.7C72.9908 36.7 74.3508 36.42 75.7508 35.86C77.1508 35.26 78.5108 34.5 79.8308 33.58C81.1508 32.66 82.3508 31.68 83.4308 30.64C84.5508 29.56 85.4908 28.52 86.2508 27.52C86.3708 27.36 86.5108 27.28 86.6708 27.28C86.8308 27.24 86.9308 27.26 86.9708 27.34C87.1308 27.38 87.2108 27.5 87.2108 27.7C87.2108 27.86 87.1708 28.02 87.0908 28.18C85.9708 29.74 84.6108 31.26 83.0108 32.74C81.4508 34.22 79.7108 35.46 77.7908 36.46C75.9108 37.42 73.9508 37.9 71.9108 37.9ZM108.351 37.18C107.591 37.18 106.891 37.02 106.251 36.7C105.611 36.34 105.151 35.74 104.871 34.9C104.591 33.98 104.451 32.84 104.451 31.48C104.451 30.8 104.491 30.12 104.571 29.44C104.691 28.72 104.831 28.1 104.991 27.58C104.791 27.94 104.411 28.62 103.851 29.62C103.291 30.58 102.591 31.64 101.751 32.8C100.911 33.92 99.9509 34.9 98.8709 35.74C97.8309 36.54 96.6909 36.94 95.4509 36.94C93.8509 36.94 92.7509 36.54 92.1509 35.74C91.5509 34.9 91.2509 33.9 91.2509 32.74C91.2509 31.34 91.5309 29.9 92.0909 28.42C92.6909 26.9 93.2909 25.7 93.8909 24.82C94.1709 24.42 94.5909 23.82 95.1509 23.02C95.7109 22.22 96.2509 21.48 96.7709 20.8C97.3309 20.08 97.7109 19.68 97.9109 19.6C98.1509 19.52 98.4109 19.46 98.6909 19.42C98.9709 19.38 99.2509 19.36 99.5309 19.36C100.171 19.36 100.691 19.48 101.091 19.72C101.491 19.84 101.691 20.04 101.691 20.32C101.691 20.44 101.591 20.6 101.391 20.8C100.951 21.16 100.251 21.88 99.2909 22.96C98.3309 24.04 97.3709 25.28 96.4109 26.68C95.4909 28.04 94.7909 29.4 94.3109 30.76C93.7909 32.04 93.5309 33.1 93.5309 33.94C93.5309 35.14 93.9709 35.74 94.8509 35.74C95.6909 35.74 96.8909 35.12 98.4509 33.88C99.5709 33 100.651 31.9 101.691 30.58C102.731 29.26 103.691 27.88 104.571 26.44C105.491 24.96 106.311 23.6 107.031 22.36C107.151 22.08 107.491 21.94 108.051 21.94C108.731 21.94 109.391 22.1 110.031 22.42C110.711 22.7 110.911 23.04 110.631 23.44C109.471 25.32 108.591 27.34 107.991 29.5C107.871 29.98 107.731 30.58 107.571 31.3C107.451 31.98 107.391 32.66 107.391 33.34C107.391 34.06 107.511 34.68 107.751 35.2C107.991 35.72 108.431 35.98 109.071 35.98C109.391 35.98 109.711 35.94 110.031 35.86C110.391 35.74 110.791 35.54 111.231 35.26C112.751 34.46 114.231 33.38 115.671 32.02C117.151 30.62 118.451 29.08 119.571 27.4C120.691 25.68 121.431 24 121.791 22.36C121.911 21.88 121.971 21.3 121.971 20.62C121.971 19.82 121.831 19.06 121.551 18.34C121.311 17.58 120.851 17.06 120.171 16.78C119.931 16.7 119.671 16.66 119.391 16.66C119.111 16.62 118.811 16.62 118.491 16.66H118.371C118.171 16.66 118.071 16.56 118.071 16.36C118.071 16.16 118.171 16.02 118.371 15.94C118.851 15.82 119.471 15.76 120.231 15.76C120.951 15.76 121.671 15.88 122.391 16.12C123.151 16.36 123.671 16.82 123.951 17.5C124.271 18.26 124.431 19.02 124.431 19.78C124.431 21.26 123.991 22.84 123.111 24.52C122.271 26.2 121.191 27.82 119.871 29.38C118.831 30.66 117.671 31.86 116.391 32.98C115.111 34.1 114.011 34.98 113.091 35.62C112.571 36.02 111.871 36.38 110.991 36.7C110.151 37.02 109.271 37.18 108.351 37.18ZM131.201 40C129.601 40 128.801 39.56 128.801 38.68C128.801 38.04 129.141 37.38 129.821 36.7C130.341 36.18 130.921 35.76 131.561 35.44C132.201 35.12 132.601 34.96 132.761 34.96C132.961 34.96 133.061 35.04 133.061 35.2C133.101 35.36 133.021 35.48 132.821 35.56C132.421 35.8 131.961 36.14 131.441 36.58C130.961 36.98 130.721 37.42 130.721 37.9C130.721 38.54 131.101 38.86 131.861 38.86C132.781 38.86 133.741 38.58 134.741 38.02C135.741 37.5 136.661 36.82 137.501 35.98C138.381 35.14 139.081 34.3 139.601 33.46C140.161 32.58 140.441 31.82 140.441 31.18C140.441 30.66 140.261 30.18 139.901 29.74C139.541 29.3 138.801 28.78 137.681 28.18C136.921 27.74 136.181 27.28 135.461 26.8C134.781 26.32 134.261 25.74 133.901 25.06C133.581 25.62 133.161 26.3 132.641 27.1C132.161 27.86 131.581 28.66 130.901 29.5C130.661 29.74 130.421 29.86 130.181 29.86C129.941 29.86 129.821 29.76 129.821 29.56C129.821 29.44 129.921 29.24 130.121 28.96C131.201 27.68 132.001 26.5 132.521 25.42C133.041 24.34 133.401 23.52 133.601 22.96C133.761 21.8 134.301 20.7 135.221 19.66C136.141 18.62 137.261 17.72 138.581 16.96C139.901 16.16 141.241 15.54 142.601 15.1C144.001 14.66 145.241 14.44 146.321 14.44C147.401 14.44 148.361 14.64 149.201 15.04C150.041 15.44 150.461 16.08 150.461 16.96C150.461 17.44 150.321 17.96 150.041 18.52C149.681 19.28 149.081 19.96 148.241 20.56C148.201 20.6 148.141 20.62 148.061 20.62C147.741 20.62 147.581 20.48 147.581 20.2C147.581 20 147.681 19.8 147.881 19.6C148.201 19.32 148.461 18.98 148.661 18.58C148.861 18.18 148.961 17.8 148.961 17.44C148.961 16.72 148.541 16.36 147.701 16.36C146.821 16.36 145.661 16.6 144.221 17.08C142.821 17.56 141.521 18.18 140.321 18.94C138.961 19.82 137.821 20.78 136.901 21.82C135.981 22.86 135.521 23.78 135.521 24.58C135.521 24.98 135.641 25.36 135.881 25.72C136.161 26.04 136.681 26.42 137.441 26.86C137.841 27.1 138.401 27.42 139.121 27.82C139.841 28.18 140.461 28.52 140.981 28.84C142.621 29.84 143.441 30.9 143.441 32.02C143.441 32.94 143.041 33.88 142.241 34.84C141.441 35.76 140.401 36.6 139.121 37.36C137.881 38.16 136.561 38.8 135.161 39.28C133.761 39.76 132.441 40 131.201 40Z" fill="black"/>
</svg>
