<svg width="266" height="60" viewBox="0 0 266 60" fill="none" xmlns="http://www.w3.org/2000/svg">
<path d="M16.96 41.32C14.16 41.32 11.78 40.62 9.82 39.22C7.9 37.82 6.44 36.02 5.44 33.82C4.44 31.58 3.94 29.18 3.94 26.62C3.94 24.06 4.46 21.52 5.5 19C6.54 16.48 8.14 14.26 10.3 12.34C12.46 10.42 15.18 9.08 18.46 8.32C18.9 8.24 19.34 8.18 19.78 8.14C20.22 8.06 20.7 8.02 21.22 8.02C22.1 8.02 22.96 8.14 23.8 8.38C24.64 8.62 25.36 9.06 25.96 9.7C26.4 10.1 26.62 10.38 26.62 10.54C26.62 10.7 26.58 10.78 26.5 10.78C26.38 10.78 26.22 10.72 26.02 10.6C25.86 10.48 25.68 10.4 25.48 10.36C24.76 10.08 23.96 9.94 23.08 9.94C22.84 9.94 22.6 9.96 22.36 10C22.16 10 21.96 10.02 21.76 10.06C19.4 10.62 17.28 11.58 15.4 12.94C13.56 14.3 11.98 15.92 10.66 17.8C9.38 19.68 8.4 21.66 7.72 23.74C7.04 25.78 6.7 27.76 6.7 29.68C6.7 31.56 7.04 33.28 7.72 34.84C8.4 36.4 9.44 37.64 10.84 38.56C12.28 39.48 14.1 39.94 16.3 39.94C16.9 39.94 17.54 39.9 18.22 39.82C18.9 39.74 19.62 39.62 20.38 39.46C21.98 39.1 23.6 38.32 25.24 37.12C26.92 35.96 28.52 34.52 30.04 32.8C31.56 31.04 32.9 29.14 34.06 27.1C35.26 25.02 36.2 22.88 36.88 20.68C37.6 18.48 37.96 16.34 37.96 14.26C37.96 10.26 36.84 7.28 34.6 5.32C32.4 3.32 29.42 2.32 25.66 2.32C23.18 2.32 20.7 2.78 18.22 3.7C15.78 4.58 13.68 5.66 11.92 6.94C10.12 8.18 8.48 9.66 7 11.38C5.56 13.06 4.38 14.86 3.46 16.78C2.54 18.66 1.98 20.56 1.78 22.48C1.78 22.92 1.68 23.14 1.48 23.14C1.32 23.14 1.16 22.96 1 22.6C0.84 22.2 0.76 21.8 0.76 21.4C0.76 19.16 1.22 17.02 2.14 14.98C3.1 12.94 4.38 11.06 5.98 9.34C7.58 7.62 9.4 6.14 11.44 4.9C13.48 3.62 15.6 2.64 17.8 1.96C20.04 1.24 22.22 0.879997 24.34 0.879997C27.54 0.839997 30.38 1.42 32.86 2.62C35.38 3.82 37.36 5.56 38.8 7.84C40.24 10.12 40.96 12.88 40.96 16.12C40.96 19.28 40.36 22.24 39.16 25C38 27.76 36.44 30.24 34.48 32.44C32.56 34.6 30.42 36.4 28.06 37.84C25.74 39.28 23.42 40.26 21.1 40.78C20.34 40.98 19.62 41.12 18.94 41.2C18.3 41.28 17.64 41.32 16.96 41.32ZM64.7247 37.6C64.0047 37.6 63.3647 37.44 62.8047 37.12C62.2447 36.8 61.8247 36.2 61.5447 35.32C61.5047 35.12 61.4447 34.9 61.3647 34.66C61.3247 34.38 61.3047 34.1 61.3047 33.82C61.3047 32.86 61.4247 31.78 61.6647 30.58C61.9447 29.38 62.2447 28.38 62.5647 27.58C62.4047 27.7 62.1247 28.1 61.7247 28.78C61.3247 29.46 60.8247 30.26 60.2247 31.18C59.6247 32.06 58.9447 32.96 58.1847 33.88C57.4647 34.76 56.6647 35.5 55.7847 36.1C54.9447 36.66 54.0447 36.94 53.0847 36.94C52.4447 36.94 51.6647 36.76 50.7447 36.4C49.8647 36.04 49.2247 35.54 48.8247 34.9C48.4247 34.26 48.2247 33.46 48.2247 32.5C48.2247 31.34 48.4847 30.08 49.0047 28.72C49.5247 27.32 50.1847 26.02 50.9847 24.82C51.2647 24.42 51.5847 23.94 51.9447 23.38C52.3047 22.82 52.6647 22.34 53.0247 21.94C53.3847 21.5 53.6447 21.26 53.8047 21.22C54.2847 21.06 54.8447 20.98 55.4847 20.98C56.1647 20.98 56.6647 21.06 56.9847 21.22C57.2647 21.34 57.4047 21.48 57.4047 21.64C57.4047 21.84 57.2447 22.1 56.9247 22.42C56.4847 22.82 55.8847 23.42 55.1247 24.22C54.3647 25.02 53.6047 25.98 52.8447 27.1C52.1247 28.22 51.5247 29.46 51.0447 30.82C50.6447 31.9 50.4447 32.84 50.4447 33.64C50.4447 35.04 51.0047 35.74 52.1247 35.74C53.0847 35.74 54.1047 35.34 55.1847 34.54C56.2647 33.74 57.3047 32.76 58.3047 31.6C59.3447 30.44 60.2647 29.3 61.0647 28.18C61.9047 27.02 62.5447 26.1 62.9847 25.42C63.3847 24.86 63.8247 24.14 64.3047 23.26C64.8247 22.38 65.3247 21.52 65.8047 20.68C66.2847 19.84 66.6647 19.22 66.9447 18.82C67.2247 18.82 67.6447 18.88 68.2047 19C68.8047 19.08 69.3047 19.24 69.7047 19.48C70.1447 19.72 70.2647 20.02 70.0647 20.38C69.8247 20.78 69.4447 21.4 68.9247 22.24C68.4447 23.08 67.9447 23.94 67.4247 24.82C66.9447 25.66 66.5647 26.34 66.2847 26.86C65.3247 28.7 64.7047 30.68 64.4247 32.8C64.3847 32.96 64.3647 33.12 64.3647 33.28C64.3647 33.4 64.3647 33.54 64.3647 33.7C64.3647 35.3 64.9047 36.1 65.9847 36.1C66.5847 36.1 67.3847 35.74 68.3847 35.02C69.3847 34.3 70.4047 33.44 71.4447 32.44C72.5247 31.44 73.4847 30.48 74.3247 29.56C75.2047 28.6 75.8047 27.88 76.1247 27.4C76.2047 27.28 76.3247 27.22 76.4847 27.22C76.6447 27.22 76.7647 27.28 76.8447 27.4C76.9647 27.52 76.9647 27.68 76.8447 27.88C76.4847 28.56 75.8647 29.42 74.9847 30.46C74.1447 31.46 73.2047 32.48 72.1647 33.52C71.1247 34.52 70.1047 35.38 69.1047 36.1C68.5847 36.5 67.9247 36.84 67.1247 37.12C66.3247 37.44 65.5247 37.6 64.7247 37.6ZM89.2848 37.72C88.6048 37.72 88.0048 37.56 87.4848 37.24C86.9648 36.96 86.6048 36.4 86.4048 35.56C86.2848 35.12 86.2248 34.68 86.2248 34.24C86.2248 33.04 86.5248 31.88 87.1248 30.76C87.7648 29.6 88.5048 28.54 89.3448 27.58C90.1848 26.58 90.9048 25.74 91.5048 25.06C91.8248 24.74 92.1848 24.32 92.5848 23.8C93.0248 23.28 93.2448 22.76 93.2448 22.24C93.2448 21.92 93.0848 21.62 92.7648 21.34C92.4448 21.02 91.8648 20.8 91.0248 20.68C90.5448 20.6 90.0848 20.54 89.6448 20.5C89.2448 20.42 88.8248 20.38 88.3848 20.38C87.2648 21.9 86.1648 23.44 85.0848 25C84.0448 26.52 82.9248 28.02 81.7248 29.5C81.4448 29.78 81.2048 29.92 81.0048 29.92C80.7648 29.92 80.6448 29.8 80.6448 29.56C80.6448 29.32 80.7648 29.08 81.0048 28.84C83.1648 26.2 85.0248 23.38 86.5848 20.38C86.3848 20.38 86.0848 20.38 85.6848 20.38C85.2848 20.34 84.9648 20.3 84.7248 20.26C84.4448 20.18 84.2248 20.06 84.0648 19.9C83.9048 19.74 83.8248 19.58 83.8248 19.42C83.8248 19.18 83.9248 19.04 84.1248 19C84.6448 18.84 85.2048 18.6 85.8048 18.28C86.4048 17.96 86.9648 17.54 87.4848 17.02C88.0448 16.46 88.5648 15.88 89.0448 15.28C89.5248 14.64 89.9048 14.16 90.1848 13.84C90.4648 13.64 90.7648 13.54 91.0848 13.54C91.2848 13.54 91.4648 13.6 91.6248 13.72C91.8248 13.84 91.9248 14.02 91.9248 14.26C91.9248 14.54 91.8048 14.9 91.5648 15.34C91.2048 15.9 90.8048 16.52 90.3648 17.2C89.9648 17.88 89.5848 18.5 89.2248 19.06C89.9448 19.1 90.6648 19.14 91.3848 19.18C92.1048 19.22 92.8448 19.24 93.6048 19.24C94.0048 19.24 94.3848 19.24 94.7448 19.24C95.1448 19.2 95.5448 19.18 95.9448 19.18C97.1448 19.18 97.7448 19.48 97.7448 20.08C97.7448 20.48 97.5248 20.98 97.0848 21.58C96.6848 22.14 96.1848 22.76 95.5848 23.44C94.2248 25 93.0648 26.64 92.1048 28.36C91.1448 30.08 90.5048 31.4 90.1848 32.32C89.8648 33.28 89.7048 34 89.7048 34.48C89.7048 35.44 90.0848 35.92 90.8448 35.92C91.5248 35.92 92.3448 35.58 93.3048 34.9C94.3048 34.22 95.3248 33.4 96.3648 32.44C97.4048 31.44 98.3448 30.48 99.1848 29.56C100.025 28.6 100.625 27.88 100.985 27.4C101.065 27.28 101.185 27.22 101.345 27.22C101.505 27.22 101.645 27.3 101.765 27.46C101.885 27.58 101.885 27.74 101.765 27.94C101.325 28.62 100.685 29.48 99.8448 30.52C99.0048 31.52 98.0648 32.52 97.0248 33.52C95.9848 34.52 94.9648 35.38 93.9648 36.1C93.4448 36.5 92.7248 36.86 91.8048 37.18C90.9248 37.54 90.0848 37.72 89.2848 37.72ZM132.737 39.04C129.937 39.04 127.737 38.56 126.137 37.6C124.537 36.68 123.737 35.36 123.737 33.64C123.737 31.88 124.257 30.26 125.297 28.78C126.337 27.26 127.677 25.96 129.317 24.88C130.997 23.76 132.737 22.9 134.537 22.3C136.377 21.66 138.077 21.34 139.637 21.34C140.437 21.34 140.837 21.46 140.837 21.7C140.837 22.06 140.417 22.24 139.577 22.24C138.097 22.24 136.477 22.6 134.717 23.32C132.997 24.04 131.457 25.04 130.097 26.32C129.017 27.28 128.197 28.26 127.637 29.26C127.117 30.22 126.857 31.12 126.857 31.96C126.857 33.2 127.437 34.24 128.597 35.08C129.757 35.88 131.497 36.28 133.817 36.28C135.177 36.28 136.557 36.18 137.957 35.98C139.357 35.74 140.617 35.48 141.737 35.2C142.897 34.92 143.777 34.7 144.377 34.54C145.857 34.06 147.337 33.48 148.817 32.8C150.337 32.12 151.697 31.36 152.897 30.52C154.097 29.64 154.977 28.76 155.537 27.88C155.857 27.4 156.077 26.94 156.197 26.5C156.357 26.06 156.437 25.64 156.437 25.24C156.437 24.12 155.937 23.18 154.937 22.42C153.937 21.62 152.657 20.9 151.097 20.26C149.537 19.62 147.877 19.02 146.117 18.46C144.357 17.86 142.697 17.24 141.137 16.6C139.577 15.96 138.297 15.24 137.297 14.44C136.297 13.6 135.797 12.6 135.797 11.44C135.797 10.12 136.277 8.94 137.237 7.9C138.237 6.82 139.497 5.88 141.017 5.08C142.577 4.24 144.237 3.56 145.997 3.04C147.757 2.48 149.437 2.06 151.037 1.78C152.637 1.5 153.957 1.36 154.997 1.36C159.397 1.36 161.597 2.46 161.597 4.66C161.597 5.54 161.237 6.56 160.517 7.72C160.197 8.32 159.737 8.9 159.137 9.46C158.537 9.98 158.077 10.24 157.757 10.24C157.517 10.24 157.397 10.1 157.397 9.82C157.397 9.7 157.617 9.46 158.057 9.1C158.497 8.7 158.937 8.22 159.377 7.66C159.817 7.1 160.037 6.54 160.037 5.98C160.037 5.14 159.557 4.5 158.597 4.06C157.677 3.62 156.457 3.4 154.937 3.4C154.217 3.4 153.177 3.52 151.817 3.76C150.457 3.96 148.977 4.3 147.377 4.78C145.777 5.26 144.237 5.9 142.757 6.7C139.997 8.22 138.617 9.52 138.617 10.6C138.617 11.4 139.397 12.16 140.957 12.88C142.117 13.4 143.457 13.94 144.977 14.5C146.497 15.06 148.037 15.66 149.597 16.3C151.157 16.94 152.597 17.66 153.917 18.46C155.277 19.26 156.357 20.16 157.157 21.16C157.997 22.12 158.417 23.22 158.417 24.46C158.417 26.14 157.497 27.86 155.657 29.62C154.217 30.98 152.537 32.24 150.617 33.4C148.737 34.56 146.737 35.56 144.617 36.4C142.537 37.24 140.477 37.88 138.437 38.32C136.397 38.8 134.497 39.04 132.737 39.04ZM169.746 37.6C169.026 37.6 168.366 37.44 167.766 37.12C167.206 36.8 166.786 36.2 166.506 35.32C166.466 35.2 166.426 35.08 166.386 34.96C166.386 34.84 166.386 34.7 166.386 34.54C166.386 33.74 166.566 32.74 166.926 31.54C167.286 30.34 167.726 29.18 168.246 28.06C168.006 28.38 167.726 28.78 167.406 29.26C167.086 29.7 166.626 30.28 166.026 31C165.866 31.16 165.686 31.24 165.486 31.24C165.206 31.24 165.066 31.08 165.066 30.76C165.066 30.52 165.146 30.32 165.306 30.16C166.346 28.84 167.266 27.66 168.066 26.62C168.906 25.58 169.526 24.7 169.926 23.98C169.926 23.9 170.046 23.66 170.286 23.26C170.526 22.82 170.846 22.22 171.246 21.46C170.926 21.5 170.646 21.54 170.406 21.58C170.206 21.58 170.026 21.58 169.866 21.58C169.586 21.58 169.346 21.46 169.146 21.22C168.946 20.98 168.926 20.68 169.086 20.32C169.286 19.76 169.726 19.44 170.406 19.36C171.086 19.28 171.686 19.22 172.206 19.18C172.246 19.1 172.326 19.06 172.446 19.06C172.926 18.18 173.386 17.32 173.826 16.48C174.266 15.64 174.626 14.94 174.906 14.38C175.226 13.82 175.386 13.52 175.386 13.48C176.186 12.2 176.706 11.36 176.946 10.96C177.186 10.52 177.506 10.26 177.906 10.18C178.346 10.14 178.806 10.16 179.286 10.24C179.806 10.32 180.146 10.5 180.306 10.78C180.426 10.94 180.486 11.14 180.486 11.38C180.486 11.74 180.406 12.1 180.246 12.46C180.086 12.78 179.926 13.04 179.766 13.24C179.606 13.52 179.386 13.72 179.106 13.84C178.866 13.92 178.646 14.16 178.446 14.56C178.046 15.32 177.606 16.14 177.126 17.02C176.646 17.9 176.146 18.74 175.626 19.54L176.346 19.48C177.306 19.4 178.206 19.3 179.046 19.18C179.926 19.06 180.926 19.02 182.046 19.06C182.246 19.06 182.446 19.1 182.646 19.18C182.886 19.22 183.006 19.3 183.006 19.42C183.006 19.58 182.486 19.8 181.446 20.08C181.046 20.24 180.166 20.42 178.806 20.62C177.486 20.78 176.126 20.94 174.726 21.1C174.326 21.86 173.966 22.5 173.646 23.02C173.326 23.5 173.106 23.86 172.986 24.1C172.106 25.94 171.306 27.62 170.586 29.14C169.906 30.62 169.526 31.84 169.446 32.8C169.406 32.96 169.386 33.12 169.386 33.28C169.386 33.4 169.386 33.54 169.386 33.7C169.386 35.3 169.906 36.1 170.946 36.1C171.586 36.1 172.406 35.76 173.406 35.08C174.406 34.36 175.426 33.5 176.466 32.5C177.506 31.46 178.446 30.48 179.286 29.56C180.166 28.6 180.766 27.88 181.086 27.4C181.206 27.28 181.326 27.22 181.446 27.22C181.606 27.22 181.726 27.28 181.806 27.4C181.926 27.52 181.946 27.68 181.866 27.88C181.506 28.56 180.886 29.42 180.006 30.46C179.166 31.46 178.206 32.48 177.126 33.52C176.086 34.52 175.066 35.38 174.066 36.1C173.546 36.5 172.886 36.84 172.086 37.12C171.326 37.44 170.546 37.6 169.746 37.6ZM191.021 37.66C189.901 37.66 188.921 37.4 188.081 36.88C186.681 36.04 185.981 34.52 185.981 32.32C185.981 31.4 186.141 30.34 186.461 29.14C186.741 28.14 187.241 27.06 187.961 25.9C188.681 24.7 189.521 23.56 190.481 22.48C191.481 21.4 192.561 20.52 193.721 19.84C194.881 19.16 196.041 18.82 197.201 18.82C197.681 18.82 198.101 18.88 198.461 19C198.941 19.16 199.341 19.46 199.661 19.9C200.021 20.3 200.201 20.82 200.201 21.46C200.201 22.14 200.021 22.52 199.661 22.6C199.341 22.68 199.181 22.6 199.181 22.36C199.181 22.28 199.181 22.2 199.181 22.12C199.221 22.04 199.241 21.98 199.241 21.94C199.241 21.62 199.141 21.34 198.941 21.1C198.781 20.82 198.461 20.68 197.981 20.68C197.341 20.68 196.541 21.02 195.581 21.7C194.661 22.38 193.701 23.3 192.701 24.46C191.741 25.58 190.881 26.82 190.121 28.18C189.401 29.54 188.921 30.9 188.681 32.26C188.641 32.46 188.601 32.66 188.561 32.86C188.561 33.02 188.561 33.2 188.561 33.4C188.561 34.32 188.761 35.1 189.161 35.74C189.601 36.34 190.281 36.64 191.201 36.64C192.321 36.64 193.401 36.22 194.441 35.38C195.481 34.5 196.401 33.46 197.201 32.26C198.041 31.06 198.661 30 199.061 29.08C199.381 28.36 199.601 27.74 199.721 27.22C199.841 26.7 199.901 26.26 199.901 25.9C199.901 25.58 199.861 25.3 199.781 25.06C199.741 24.82 199.681 24.62 199.601 24.46C199.521 24.22 199.481 24.04 199.481 23.92C199.481 23.6 199.601 23.34 199.841 23.14C200.121 22.94 200.401 22.84 200.681 22.84C200.921 22.84 201.181 22.92 201.461 23.08C201.781 23.16 202.221 23.22 202.781 23.26C203.341 23.3 203.941 23.32 204.581 23.32C205.261 23.32 205.941 23.3 206.621 23.26C207.341 23.22 207.961 23.14 208.481 23.02C208.561 22.98 208.681 22.96 208.841 22.96C209.121 22.96 209.261 23.04 209.261 23.2C209.261 23.36 209.121 23.5 208.841 23.62C207.441 24.26 206.181 24.6 205.061 24.64C203.981 24.68 203.041 24.7 202.241 24.7C202.321 25.7 202.101 26.78 201.581 27.94C201.061 29.06 200.521 30.06 199.961 30.94C199.281 31.94 198.501 32.96 197.621 34C196.741 35.04 195.761 35.92 194.681 36.64C193.601 37.32 192.381 37.66 191.021 37.66ZM221.297 37.72C220.617 37.72 220.017 37.56 219.497 37.24C218.977 36.96 218.617 36.4 218.417 35.56C218.297 35.12 218.237 34.68 218.237 34.24C218.237 33.04 218.537 31.88 219.137 30.76C219.777 29.6 220.517 28.54 221.357 27.58C222.197 26.58 222.917 25.74 223.517 25.06C223.837 24.74 224.197 24.32 224.597 23.8C225.037 23.28 225.257 22.76 225.257 22.24C225.257 21.92 225.097 21.62 224.777 21.34C224.457 21.02 223.877 20.8 223.037 20.68C222.557 20.6 222.097 20.54 221.657 20.5C221.257 20.42 220.837 20.38 220.397 20.38C219.277 21.9 218.177 23.44 217.097 25C216.057 26.52 214.937 28.02 213.737 29.5C213.457 29.78 213.217 29.92 213.017 29.92C212.777 29.92 212.657 29.8 212.657 29.56C212.657 29.32 212.777 29.08 213.017 28.84C215.177 26.2 217.037 23.38 218.597 20.38C218.397 20.38 218.097 20.38 217.697 20.38C217.297 20.34 216.977 20.3 216.737 20.26C216.457 20.18 216.237 20.06 216.077 19.9C215.917 19.74 215.837 19.58 215.837 19.42C215.837 19.18 215.937 19.04 216.137 19C216.657 18.84 217.217 18.6 217.817 18.28C218.417 17.96 218.977 17.54 219.497 17.02C220.057 16.46 220.577 15.88 221.057 15.28C221.537 14.64 221.917 14.16 222.197 13.84C222.477 13.64 222.777 13.54 223.097 13.54C223.297 13.54 223.477 13.6 223.637 13.72C223.837 13.84 223.937 14.02 223.937 14.26C223.937 14.54 223.817 14.9 223.577 15.34C223.217 15.9 222.817 16.52 222.377 17.2C221.977 17.88 221.597 18.5 221.237 19.06C221.957 19.1 222.677 19.14 223.397 19.18C224.117 19.22 224.857 19.24 225.617 19.24C226.017 19.24 226.397 19.24 226.757 19.24C227.157 19.2 227.557 19.18 227.957 19.18C229.157 19.18 229.757 19.48 229.757 20.08C229.757 20.48 229.537 20.98 229.097 21.58C228.697 22.14 228.197 22.76 227.597 23.44C226.237 25 225.077 26.64 224.117 28.36C223.157 30.08 222.517 31.4 222.197 32.32C221.877 33.28 221.717 34 221.717 34.48C221.717 35.44 222.097 35.92 222.857 35.92C223.537 35.92 224.357 35.58 225.317 34.9C226.317 34.22 227.337 33.4 228.377 32.44C229.417 31.44 230.357 30.48 231.197 29.56C232.037 28.6 232.637 27.88 232.997 27.4C233.077 27.28 233.197 27.22 233.357 27.22C233.517 27.22 233.657 27.3 233.777 27.46C233.897 27.58 233.897 27.74 233.777 27.94C233.337 28.62 232.697 29.48 231.857 30.52C231.017 31.52 230.077 32.52 229.037 33.52C227.997 34.52 226.977 35.38 225.977 36.1C225.457 36.5 224.737 36.86 223.817 37.18C222.937 37.54 222.097 37.72 221.297 37.72ZM235.724 59.02C235.244 58.9 234.824 58.78 234.464 58.66C233.704 58.26 233.164 57.8 232.844 57.28C232.524 56.8 232.364 56.28 232.364 55.72C232.364 54.8 232.684 53.8 233.324 52.72C233.924 51.68 234.724 50.6 235.724 49.48C236.724 48.28 237.984 47.06 239.504 45.82C241.064 44.58 242.684 43.38 244.364 42.22C246.044 41.1 247.524 40.12 248.804 39.28C249.484 37.88 250.184 36.38 250.904 34.78C251.664 33.18 252.384 31.64 253.064 30.16C253.744 28.64 254.324 27.26 254.804 26.02C255.324 24.78 255.704 23.82 255.944 23.14C255.304 23.9 254.564 24.86 253.724 26.02C252.884 27.14 251.964 28.34 250.964 29.62C249.964 30.86 248.924 32.04 247.844 33.16C246.804 34.28 245.724 35.2 244.604 35.92C243.484 36.6 242.384 36.94 241.304 36.94C239.704 36.94 238.584 36.54 237.944 35.74C237.344 34.9 237.044 33.92 237.044 32.8C237.044 32 237.144 31.2 237.344 30.4C237.584 29.6 237.884 28.86 238.244 28.18C238.484 27.7 238.864 27.06 239.384 26.26C239.904 25.46 240.504 24.64 241.184 23.8C241.864 22.96 242.544 22.26 243.224 21.7C243.944 21.14 244.624 20.86 245.264 20.86C246.024 20.86 246.604 21.14 247.004 21.7C247.404 22.22 247.444 22.58 247.124 22.78C246.484 23.22 245.684 23.9 244.724 24.82C243.804 25.7 242.884 26.72 241.964 27.88C241.724 28.2 241.424 28.7 241.064 29.38C240.744 30.06 240.444 30.8 240.164 31.6C239.884 32.36 239.744 33.06 239.744 33.7C239.744 33.98 239.784 34.26 239.864 34.54C239.944 34.78 240.084 34.96 240.284 35.08C240.604 35.32 240.964 35.44 241.364 35.44C241.924 35.44 242.544 35.26 243.224 34.9C243.944 34.54 244.624 34.08 245.264 33.52C247.504 31.36 249.504 29.1 251.264 26.74C253.024 24.38 254.884 22.04 256.844 19.72C256.964 19.32 257.304 19.12 257.864 19.12C258.504 19.12 259.164 19.32 259.844 19.72C260.564 20.08 260.864 20.38 260.744 20.62C260.384 21.42 259.904 22.48 259.304 23.8C258.744 25.12 258.124 26.54 257.444 28.06C256.764 29.58 256.084 31.1 255.404 32.62C254.724 34.1 254.104 35.44 253.544 36.64C254.024 36.4 254.884 35.8 256.124 34.84C257.364 33.88 258.724 32.72 260.204 31.36C261.684 29.96 263.024 28.52 264.224 27.04C264.464 26.8 264.644 26.68 264.764 26.68C265.004 26.68 265.124 26.84 265.124 27.16C265.124 27.44 265.004 27.76 264.764 28.12C264.164 28.92 263.324 29.86 262.244 30.94C261.204 32.02 260.064 33.12 258.824 34.24C257.624 35.32 256.444 36.3 255.284 37.18C254.124 38.1 253.124 38.8 252.284 39.28C251.044 41.92 249.844 44.4 248.684 46.72C247.524 49.08 246.464 50.98 245.504 52.42C244.864 53.42 244.084 54.44 243.164 55.48C242.244 56.52 241.244 57.38 240.164 58.06C239.084 58.78 237.944 59.14 236.744 59.14C236.584 59.14 236.424 59.12 236.264 59.08C236.104 59.08 235.924 59.06 235.724 59.02ZM235.904 57.7C236.224 57.7 236.604 57.6 237.044 57.4C237.524 57.2 238.024 56.88 238.544 56.44C240.064 55.2 241.344 53.74 242.384 52.06C243.424 50.42 244.344 48.68 245.144 46.84C245.984 45 246.824 43.24 247.664 41.56C246.104 42.72 244.344 44.08 242.384 45.64C240.424 47.24 238.644 48.82 237.044 50.38C236.084 51.34 235.384 52.28 234.944 53.2C234.504 54.16 234.284 55 234.284 55.72C234.284 57.04 234.824 57.7 235.904 57.7Z" fill="#3D3D3D"/>
</svg>
