<svg width="222" height="44" viewBox="0 0 222 44" fill="none" xmlns="http://www.w3.org/2000/svg">
<path d="M9.14 38.62C9.06 38.62 8.82 38.58 8.42 38.5C8.06 38.42 7.7 38.32 7.34 38.2C7.02 38.08 6.84 37.94 6.8 37.78C6.72 37.02 6.92 35.94 7.4 34.54C7.88 33.14 8.52 31.58 9.32 29.86C10.16 28.1 11.02 26.38 11.9 24.7C11.74 24.7 11.56 24.7 11.36 24.7C11.2 24.66 11.02 24.64 10.82 24.64C10.34 24.56 10.1 24.34 10.1 23.98C10.1 23.78 10.32 23.68 10.76 23.68C11.08 23.68 11.36 23.7 11.6 23.74C11.84 23.74 12.1 23.74 12.38 23.74C13.18 22.22 13.92 20.86 14.6 19.66C15.28 18.42 15.76 17.48 16.04 16.84C16.28 16.4 16.44 16.04 16.52 15.76C16.6 15.44 16.64 15.2 16.64 15.04C16.64 14.8 16.6 14.6 16.52 14.44C16.6 13.96 16.88 13.32 17.36 12.52C17.88 11.72 18.52 10.92 19.28 10.12C20.04 9.32 20.86 8.66 21.74 8.14C22.62 7.58 23.44 7.3 24.2 7.3C24.44 7.3 24.8 7.38 25.28 7.54C25.8 7.66 26.3 7.86 26.78 8.14C27.26 8.42 27.56 8.82 27.68 9.34C27.72 9.42 27.74 9.54 27.74 9.7C27.74 9.82 27.68 9.88 27.56 9.88C27.48 9.88 27.36 9.86 27.2 9.82C27.08 9.74 26.98 9.7 26.9 9.7C26.02 9.7 25.06 10.12 24.02 10.96C23.02 11.76 21.98 12.84 20.9 14.2C19.82 15.56 18.74 17.08 17.66 18.76C16.62 20.4 15.62 22.06 14.66 23.74C16.66 23.66 18.78 23.42 21.02 23.02C23.26 22.58 25.48 22 27.68 21.28C29.88 20.56 31.92 19.68 33.8 18.64C35.68 17.6 37.26 16.42 38.54 15.1C39.94 13.62 40.64 12.1 40.64 10.54C40.64 9.38 40.2 8.3 39.32 7.3C38.44 6.3 37.06 5.54 35.18 5.02C34.06 4.7 32.78 4.46 31.34 4.3C29.94 4.14 28.42 4.06 26.78 4.06C24.22 4.06 21.58 4.28 18.86 4.72C16.18 5.16 13.66 5.84 11.3 6.76C8.94 7.64 6.96 8.76 5.36 10.12C3.76 11.48 2.8 13.1 2.48 14.98C2.36 15.94 2.54 16.7 3.02 17.26C3.5 17.82 4.08 18.26 4.76 18.58C5.48 18.86 6.04 19.12 6.44 19.36C6.72 19.6 6.86 19.8 6.86 19.96C6.86 20.24 6.6 20.34 6.08 20.26C5.52 20.14 4.82 19.86 3.98 19.42C3.18 18.98 2.46 18.38 1.82 17.62C1.22 16.82 0.92 15.9 0.92 14.86C0.92 14.7 0.92 14.54 0.92 14.38C0.96 14.22 1 14.06 1.04 13.9C1.04 13.86 1.02 13.74 0.98 13.54C0.98 13.3 0.98 13.1 0.98 12.94C1.22 11.7 1.82 10.54 2.78 9.46C3.78 8.34 4.9 7.36 6.14 6.52C7.42 5.64 8.6 4.94 9.68 4.42C11.56 3.5 13.82 2.78 16.46 2.26C19.1 1.7 21.86 1.42 24.74 1.42C26.5 1.42 28.24 1.54 29.96 1.78C31.72 2.02 33.42 2.4 35.06 2.92C37.34 3.68 39.1 4.86 40.34 6.46C41.62 8.02 42.2 9.66 42.08 11.38C41.96 13.02 41.38 14.5 40.34 15.82C39.34 17.14 38.04 18.3 36.44 19.3C34.88 20.26 33.14 21.1 31.22 21.82C29.34 22.5 27.44 23.06 25.52 23.5C23.68 23.9 21.72 24.2 19.64 24.4C17.6 24.6 15.76 24.72 14.12 24.76C13.16 26.48 12.3 28.1 11.54 29.62C10.82 31.14 10.28 32.36 9.92 33.28C9.6 34.16 9.44 34.78 9.44 35.14C9.44 35.7 9.66 35.98 10.1 35.98C10.66 35.98 11.26 35.6 11.9 34.84C12.34 34.32 12.74 33.84 13.1 33.4C13.5 32.92 13.84 32.72 14.12 32.8C14.16 32.84 14.18 32.9 14.18 32.98C14.18 33.18 14.04 33.46 13.76 33.82C13.48 34.14 13.32 34.32 13.28 34.36C13 34.76 12.62 35.3 12.14 35.98C11.7 36.66 11.22 37.26 10.7 37.78C10.22 38.34 9.7 38.62 9.14 38.62ZM52.5856 37.72C51.9056 37.72 51.3056 37.56 50.7856 37.24C50.2656 36.96 49.9056 36.4 49.7056 35.56C49.5856 35.12 49.5256 34.68 49.5256 34.24C49.5256 33.04 49.8256 31.88 50.4256 30.76C51.0656 29.6 51.8056 28.54 52.6456 27.58C53.4856 26.58 54.2056 25.74 54.8056 25.06C55.1256 24.74 55.4856 24.32 55.8856 23.8C56.3256 23.28 56.5456 22.76 56.5456 22.24C56.5456 21.92 56.3856 21.62 56.0656 21.34C55.7456 21.02 55.1656 20.8 54.3256 20.68C53.8456 20.6 53.3856 20.54 52.9456 20.5C52.5456 20.42 52.1256 20.38 51.6856 20.38C50.5656 21.9 49.4656 23.44 48.3856 25C47.3456 26.52 46.2256 28.02 45.0256 29.5C44.7456 29.78 44.5056 29.92 44.3056 29.92C44.0656 29.92 43.9456 29.8 43.9456 29.56C43.9456 29.32 44.0656 29.08 44.3056 28.84C46.4656 26.2 48.3256 23.38 49.8856 20.38C49.6856 20.38 49.3856 20.38 48.9856 20.38C48.5856 20.34 48.2656 20.3 48.0256 20.26C47.7456 20.18 47.5256 20.06 47.3656 19.9C47.2056 19.74 47.1256 19.58 47.1256 19.42C47.1256 19.18 47.2256 19.04 47.4256 19C47.9456 18.84 48.5056 18.6 49.1056 18.28C49.7056 17.96 50.2656 17.54 50.7856 17.02C51.3456 16.46 51.8656 15.88 52.3456 15.28C52.8256 14.64 53.2056 14.16 53.4856 13.84C53.7656 13.64 54.0656 13.54 54.3856 13.54C54.5856 13.54 54.7656 13.6 54.9256 13.72C55.1256 13.84 55.2256 14.02 55.2256 14.26C55.2256 14.54 55.1056 14.9 54.8656 15.34C54.5056 15.9 54.1056 16.52 53.6656 17.2C53.2656 17.88 52.8856 18.5 52.5256 19.06C53.2456 19.1 53.9656 19.14 54.6856 19.18C55.4056 19.22 56.1456 19.24 56.9056 19.24C57.3056 19.24 57.6856 19.24 58.0456 19.24C58.4456 19.2 58.8456 19.18 59.2456 19.18C60.4456 19.18 61.0456 19.48 61.0456 20.08C61.0456 20.48 60.8256 20.98 60.3856 21.58C59.9856 22.14 59.4856 22.76 58.8856 23.44C57.5256 25 56.3656 26.64 55.4056 28.36C54.4456 30.08 53.8056 31.4 53.4856 32.32C53.1656 33.28 53.0056 34 53.0056 34.48C53.0056 35.44 53.3856 35.92 54.1456 35.92C54.8256 35.92 55.6456 35.58 56.6056 34.9C57.6056 34.22 58.6256 33.4 59.6656 32.44C60.7056 31.44 61.6456 30.48 62.4856 29.56C63.3256 28.6 63.9256 27.88 64.2856 27.4C64.3656 27.28 64.4856 27.22 64.6456 27.22C64.8056 27.22 64.9456 27.3 65.0656 27.46C65.1856 27.58 65.1856 27.74 65.0656 27.94C64.6256 28.62 63.9856 29.48 63.1456 30.52C62.3056 31.52 61.3656 32.52 60.3256 33.52C59.2856 34.52 58.2656 35.38 57.2656 36.1C56.7456 36.5 56.0256 36.86 55.1056 37.18C54.2256 37.54 53.3856 37.72 52.5856 37.72ZM74.2128 37.66C73.0928 37.66 72.1128 37.4 71.2728 36.88C69.8728 36.04 69.1728 34.52 69.1728 32.32C69.1728 31.4 69.3328 30.34 69.6528 29.14C69.9328 28.14 70.4328 27.06 71.1528 25.9C71.8728 24.7 72.7128 23.56 73.6728 22.48C74.6728 21.4 75.7528 20.52 76.9128 19.84C78.0728 19.16 79.2328 18.82 80.3928 18.82C80.8728 18.82 81.2928 18.88 81.6528 19C82.1328 19.16 82.5328 19.46 82.8528 19.9C83.2128 20.3 83.3928 20.82 83.3928 21.46C83.3928 22.14 83.2128 22.52 82.8528 22.6C82.5328 22.68 82.3728 22.6 82.3728 22.36C82.3728 22.28 82.3728 22.2 82.3728 22.12C82.4128 22.04 82.4328 21.98 82.4328 21.94C82.4328 21.62 82.3328 21.34 82.1328 21.1C81.9728 20.82 81.6528 20.68 81.1728 20.68C80.5328 20.68 79.7328 21.02 78.7728 21.7C77.8528 22.38 76.8928 23.3 75.8928 24.46C74.9328 25.58 74.0728 26.82 73.3128 28.18C72.5928 29.54 72.1128 30.9 71.8728 32.26C71.8328 32.46 71.7928 32.66 71.7528 32.86C71.7528 33.02 71.7528 33.2 71.7528 33.4C71.7528 34.32 71.9528 35.1 72.3528 35.74C72.7928 36.34 73.4728 36.64 74.3928 36.64C75.5128 36.64 76.5928 36.22 77.6328 35.38C78.6728 34.5 79.5928 33.46 80.3928 32.26C81.2328 31.06 81.8528 30 82.2528 29.08C82.5728 28.36 82.7928 27.74 82.9128 27.22C83.0328 26.7 83.0928 26.26 83.0928 25.9C83.0928 25.58 83.0528 25.3 82.9728 25.06C82.9328 24.82 82.8728 24.62 82.7928 24.46C82.7128 24.22 82.6728 24.04 82.6728 23.92C82.6728 23.6 82.7928 23.34 83.0328 23.14C83.3128 22.94 83.5928 22.84 83.8728 22.84C84.1128 22.84 84.3728 22.92 84.6528 23.08C84.9728 23.16 85.4128 23.22 85.9728 23.26C86.5328 23.3 87.1328 23.32 87.7728 23.32C88.4528 23.32 89.1328 23.3 89.8128 23.26C90.5328 23.22 91.1528 23.14 91.6728 23.02C91.7528 22.98 91.8728 22.96 92.0328 22.96C92.3128 22.96 92.4528 23.04 92.4528 23.2C92.4528 23.36 92.3128 23.5 92.0328 23.62C90.6328 24.26 89.3728 24.6 88.2528 24.64C87.1728 24.68 86.2328 24.7 85.4328 24.7C85.5128 25.7 85.2928 26.78 84.7728 27.94C84.2528 29.06 83.7128 30.06 83.1528 30.94C82.4728 31.94 81.6928 32.96 80.8128 34C79.9328 35.04 78.9528 35.92 77.8728 36.64C76.7928 37.32 75.5728 37.66 74.2128 37.66ZM112.648 43.54C111.608 43.38 110.868 42.88 110.428 42.04C109.988 41.2 109.768 40.16 109.768 38.92C109.768 37.44 109.968 35.84 110.368 34.12C110.808 32.4 111.308 30.78 111.868 29.26C112.428 27.74 112.868 26.58 113.188 25.78C112.268 26.86 111.208 28.04 110.008 29.32C108.848 30.6 107.628 31.82 106.348 32.98C105.068 34.14 103.828 35.1 102.628 35.86C101.468 36.58 100.448 36.94 99.568 36.94C98.928 36.94 98.248 36.76 97.528 36.4C96.808 36 96.228 35.5 95.788 34.9C95.188 34.1 94.888 33.28 94.888 32.44C94.888 31.36 95.248 30.24 95.968 29.08C96.728 27.92 97.688 26.8 98.848 25.72C100.048 24.6 101.308 23.6 102.628 22.72C103.988 21.8 105.268 21.04 106.468 20.44C107.708 19.8 108.708 19.38 109.468 19.18C109.868 19.1 110.288 19.02 110.728 18.94C111.168 18.86 111.628 18.82 112.108 18.82C112.708 18.82 113.308 18.9 113.908 19.06C114.508 19.18 115.008 19.4 115.408 19.72L115.648 19.9C116.608 17.7 117.668 15.48 118.828 13.24C119.988 10.96 121.228 8.88 122.548 7C123.868 5.12 125.268 3.62 126.748 2.5C128.228 1.34 129.768 0.759998 131.368 0.759998C131.568 0.759998 131.768 0.779998 131.968 0.819997C132.168 0.819997 132.348 0.839997 132.508 0.879997C133.508 1.08 134.208 1.44 134.608 1.96C135.048 2.44 135.268 3.02 135.268 3.7C135.268 4.18 135.168 4.7 134.968 5.26C134.808 5.78 134.568 6.3 134.248 6.82C133.368 8.38 132.208 9.92 130.768 11.44C129.368 12.96 127.828 14.44 126.148 15.88C124.468 17.28 122.788 18.64 121.108 19.96C119.468 21.28 117.968 22.52 116.608 23.68C116.008 25.08 115.408 26.72 114.808 28.6C114.208 30.48 113.708 32.08 113.308 33.4C113.068 34.36 112.868 35.26 112.708 36.1C112.588 36.94 112.528 37.72 112.528 38.44C112.528 39.76 112.768 40.84 113.248 41.68C113.648 42.32 114.148 42.64 114.748 42.64C115.188 42.64 115.588 42.48 115.948 42.16C116.108 42.08 116.248 41.98 116.368 41.86C116.528 41.74 116.708 41.62 116.908 41.5C117.148 41.38 117.348 41.32 117.508 41.32C117.788 41.32 117.808 41.54 117.568 41.98C117.448 42.1 117.308 42.24 117.148 42.4C116.988 42.6 116.808 42.8 116.608 43C116.328 43.2 115.908 43.36 115.348 43.48C114.788 43.6 114.228 43.66 113.668 43.66C113.508 43.66 113.328 43.64 113.128 43.6C112.968 43.6 112.808 43.58 112.648 43.54ZM118.408 20.26C120.008 19.18 121.748 17.84 123.628 16.24C125.508 14.6 127.268 12.86 128.908 11.02C130.548 9.14 131.808 7.36 132.688 5.68C133.208 4.72 133.468 3.96 133.468 3.4C133.468 2.72 133.168 2.38 132.568 2.38C132.008 2.38 131.268 2.7 130.348 3.34C127.668 5.42 125.408 7.9 123.568 10.78C121.728 13.62 120.008 16.78 118.408 20.26ZM97.888 35.5C98.088 35.74 98.348 35.86 98.668 35.86C99.268 35.86 99.968 35.6 100.768 35.08C101.608 34.56 102.168 34.16 102.448 33.88C104.488 32.24 106.528 30.48 108.568 28.6C110.648 26.68 112.588 24.76 114.388 22.84C114.548 22.48 114.688 22.14 114.808 21.82C114.928 21.46 115.068 21.12 115.228 20.8C114.628 20.56 113.928 20.44 113.128 20.44C111.528 20.44 109.768 20.96 107.848 22C105.928 23.04 104.208 24.26 102.688 25.66C102.208 26.06 101.548 26.76 100.708 27.76C99.908 28.72 99.168 29.78 98.488 30.94C97.808 32.1 97.468 33.16 97.468 34.12C97.468 34.64 97.608 35.1 97.888 35.5ZM141.029 37.6C140.309 37.6 139.669 37.44 139.109 37.12C138.549 36.8 138.129 36.2 137.849 35.32C137.809 35.12 137.749 34.9 137.669 34.66C137.629 34.38 137.609 34.1 137.609 33.82C137.609 32.86 137.729 31.78 137.969 30.58C138.249 29.38 138.549 28.38 138.869 27.58C138.709 27.7 138.429 28.1 138.029 28.78C137.629 29.46 137.129 30.26 136.529 31.18C135.929 32.06 135.249 32.96 134.489 33.88C133.769 34.76 132.969 35.5 132.089 36.1C131.249 36.66 130.349 36.94 129.389 36.94C128.749 36.94 127.969 36.76 127.049 36.4C126.169 36.04 125.529 35.54 125.129 34.9C124.729 34.26 124.529 33.46 124.529 32.5C124.529 31.34 124.789 30.08 125.309 28.72C125.829 27.32 126.489 26.02 127.289 24.82C127.569 24.42 127.889 23.94 128.249 23.38C128.609 22.82 128.969 22.34 129.329 21.94C129.689 21.5 129.949 21.26 130.109 21.22C130.589 21.06 131.149 20.98 131.789 20.98C132.469 20.98 132.969 21.06 133.289 21.22C133.569 21.34 133.709 21.48 133.709 21.64C133.709 21.84 133.549 22.1 133.229 22.42C132.789 22.82 132.189 23.42 131.429 24.22C130.669 25.02 129.909 25.98 129.149 27.1C128.429 28.22 127.829 29.46 127.349 30.82C126.949 31.9 126.749 32.84 126.749 33.64C126.749 35.04 127.309 35.74 128.429 35.74C129.389 35.74 130.409 35.34 131.489 34.54C132.569 33.74 133.609 32.76 134.609 31.6C135.649 30.44 136.569 29.3 137.369 28.18C138.209 27.02 138.849 26.1 139.289 25.42C139.689 24.86 140.129 24.14 140.609 23.26C141.129 22.38 141.629 21.52 142.109 20.68C142.589 19.84 142.969 19.22 143.249 18.82C143.529 18.82 143.949 18.88 144.509 19C145.109 19.08 145.609 19.24 146.009 19.48C146.449 19.72 146.569 20.02 146.369 20.38C146.129 20.78 145.749 21.4 145.229 22.24C144.749 23.08 144.249 23.94 143.729 24.82C143.249 25.66 142.869 26.34 142.589 26.86C141.629 28.7 141.009 30.68 140.729 32.8C140.689 32.96 140.669 33.12 140.669 33.28C140.669 33.4 140.669 33.54 140.669 33.7C140.669 35.3 141.209 36.1 142.289 36.1C142.889 36.1 143.689 35.74 144.689 35.02C145.689 34.3 146.709 33.44 147.749 32.44C148.829 31.44 149.789 30.48 150.629 29.56C151.509 28.6 152.109 27.88 152.429 27.4C152.509 27.28 152.629 27.22 152.789 27.22C152.949 27.22 153.069 27.28 153.149 27.4C153.269 27.52 153.269 27.68 153.149 27.88C152.789 28.56 152.169 29.42 151.289 30.46C150.449 31.46 149.509 32.48 148.469 33.52C147.429 34.52 146.409 35.38 145.409 36.1C144.889 36.5 144.229 36.84 143.429 37.12C142.629 37.44 141.829 37.6 141.029 37.6ZM164.75 37.66C164.03 37.78 163.31 37.84 162.59 37.84C160.83 37.84 159.37 37.42 158.21 36.58C157.05 35.74 156.47 34.52 156.47 32.92C156.47 31.96 156.75 30.8 157.31 29.44C157.71 28.52 158.45 27.46 159.53 26.26C160.61 25.06 161.87 23.9 163.31 22.78C164.75 21.62 166.21 20.68 167.69 19.96C169.17 19.2 170.51 18.82 171.71 18.82C172.15 18.82 172.55 18.88 172.91 19C173.35 19.16 173.73 19.38 174.05 19.66C174.37 19.94 174.53 20.36 174.53 20.92C174.53 21.04 174.53 21.16 174.53 21.28C174.53 21.4 174.49 21.54 174.41 21.7C174.41 21.82 174.31 22.08 174.11 22.48C173.95 22.88 173.75 23.24 173.51 23.56C173.31 23.84 173.13 23.9 172.97 23.74C172.81 23.62 172.73 23.46 172.73 23.26C172.73 23.06 172.77 22.84 172.85 22.6C172.97 22.32 173.03 22.08 173.03 21.88C173.03 21.6 172.95 21.34 172.79 21.1C172.67 20.82 172.45 20.68 172.13 20.68C171.37 20.68 170.39 21.02 169.19 21.7C167.99 22.38 166.75 23.3 165.47 24.46C164.23 25.58 163.11 26.82 162.11 28.18C161.11 29.54 160.41 30.9 160.01 32.26C159.89 32.58 159.81 32.9 159.77 33.22C159.73 33.5 159.71 33.78 159.71 34.06C159.71 34.94 159.99 35.58 160.55 35.98C161.15 36.34 161.87 36.52 162.71 36.52C163.63 36.52 164.57 36.38 165.53 36.1C168.25 35.3 170.45 34.2 172.13 32.8C173.85 31.4 175.57 29.6 177.29 27.4C177.45 27.2 177.59 27.12 177.71 27.16C177.83 27.2 177.93 27.22 178.01 27.22C178.13 27.26 178.19 27.38 178.19 27.58C178.19 27.66 178.17 27.76 178.13 27.88C178.09 28 178.05 28.1 178.01 28.18C176.29 30.5 174.39 32.54 172.31 34.3C170.23 36.02 167.71 37.14 164.75 37.66ZM185.301 37.6C184.581 37.6 183.921 37.44 183.321 37.12C182.761 36.8 182.341 36.2 182.061 35.32C182.021 35.2 181.981 35.08 181.941 34.96C181.941 34.84 181.941 34.7 181.941 34.54C181.941 33.74 182.121 32.74 182.481 31.54C182.841 30.34 183.281 29.18 183.801 28.06C183.561 28.38 183.281 28.78 182.961 29.26C182.641 29.7 182.181 30.28 181.581 31C181.421 31.16 181.241 31.24 181.041 31.24C180.761 31.24 180.621 31.08 180.621 30.76C180.621 30.52 180.701 30.32 180.861 30.16C181.901 28.84 182.821 27.66 183.621 26.62C184.461 25.58 185.081 24.7 185.481 23.98C185.481 23.9 185.601 23.66 185.841 23.26C186.081 22.82 186.401 22.22 186.801 21.46C186.481 21.5 186.201 21.54 185.961 21.58C185.761 21.58 185.581 21.58 185.421 21.58C185.141 21.58 184.901 21.46 184.701 21.22C184.501 20.98 184.481 20.68 184.641 20.32C184.841 19.76 185.281 19.44 185.961 19.36C186.641 19.28 187.241 19.22 187.761 19.18C187.801 19.1 187.881 19.06 188.001 19.06C188.481 18.18 188.941 17.32 189.381 16.48C189.821 15.64 190.181 14.94 190.461 14.38C190.781 13.82 190.941 13.52 190.941 13.48C191.741 12.2 192.261 11.36 192.501 10.96C192.741 10.52 193.061 10.26 193.461 10.18C193.901 10.14 194.361 10.16 194.841 10.24C195.361 10.32 195.701 10.5 195.861 10.78C195.981 10.94 196.041 11.14 196.041 11.38C196.041 11.74 195.961 12.1 195.801 12.46C195.641 12.78 195.481 13.04 195.321 13.24C195.161 13.52 194.941 13.72 194.661 13.84C194.421 13.92 194.201 14.16 194.001 14.56C193.601 15.32 193.161 16.14 192.681 17.02C192.201 17.9 191.701 18.74 191.181 19.54L191.901 19.48C192.861 19.4 193.761 19.3 194.601 19.18C195.481 19.06 196.481 19.02 197.601 19.06C197.801 19.06 198.001 19.1 198.201 19.18C198.441 19.22 198.561 19.3 198.561 19.42C198.561 19.58 198.041 19.8 197.001 20.08C196.601 20.24 195.721 20.42 194.361 20.62C193.041 20.78 191.681 20.94 190.281 21.1C189.881 21.86 189.521 22.5 189.201 23.02C188.881 23.5 188.661 23.86 188.541 24.1C187.661 25.94 186.861 27.62 186.141 29.14C185.461 30.62 185.081 31.84 185.001 32.8C184.961 32.96 184.941 33.12 184.941 33.28C184.941 33.4 184.941 33.54 184.941 33.7C184.941 35.3 185.461 36.1 186.501 36.1C187.141 36.1 187.961 35.76 188.961 35.08C189.961 34.36 190.981 33.5 192.021 32.5C193.061 31.46 194.001 30.48 194.841 29.56C195.721 28.6 196.321 27.88 196.641 27.4C196.761 27.28 196.881 27.22 197.001 27.22C197.161 27.22 197.281 27.28 197.361 27.4C197.481 27.52 197.501 27.68 197.421 27.88C197.061 28.56 196.441 29.42 195.561 30.46C194.721 31.46 193.761 32.48 192.681 33.52C191.641 34.52 190.621 35.38 189.621 36.1C189.101 36.5 188.441 36.84 187.641 37.12C186.881 37.44 186.101 37.6 185.301 37.6ZM202.556 40C202.116 40 201.676 39.94 201.236 39.82C200.796 39.7 200.476 39.46 200.276 39.1C200.116 38.78 200.136 38.38 200.336 37.9C200.536 37.46 200.816 37.06 201.176 36.7C201.496 36.38 201.896 36.06 202.376 35.74C202.896 35.42 203.436 35.16 203.996 34.96H204.116C204.316 34.96 204.416 35.04 204.416 35.2C204.416 35.32 204.336 35.44 204.176 35.56C203.456 35.92 202.896 36.36 202.496 36.88C202.216 37.2 202.076 37.54 202.076 37.9C202.076 38.54 202.456 38.86 203.216 38.86C204.056 38.86 204.956 38.6 205.916 38.08C206.916 37.6 207.856 36.96 208.736 36.16C209.656 35.32 210.396 34.44 210.956 33.52C211.516 32.6 211.796 31.72 211.796 30.88C211.796 30.32 211.496 29.82 210.896 29.38C210.296 28.9 209.636 28.48 208.916 28.12C208.196 27.72 207.656 27.4 207.296 27.16C206.856 26.84 206.456 26.52 206.096 26.2C205.736 25.84 205.456 25.46 205.256 25.06C204.936 25.62 204.516 26.3 203.996 27.1C203.516 27.86 202.936 28.66 202.256 29.5C202.016 29.74 201.776 29.86 201.536 29.86C201.296 29.86 201.176 29.76 201.176 29.56C201.176 29.44 201.276 29.24 201.476 28.96C202.556 27.68 203.356 26.5 203.876 25.42C204.396 24.34 204.756 23.52 204.956 22.96C205.116 21.8 205.656 20.7 206.576 19.66C207.496 18.62 208.616 17.72 209.936 16.96C211.256 16.16 212.596 15.54 213.956 15.1C215.356 14.66 216.596 14.44 217.676 14.44C218.756 14.44 219.716 14.64 220.556 15.04C221.396 15.44 221.816 16.08 221.816 16.96C221.816 17.44 221.676 17.96 221.396 18.52C221.036 19.28 220.436 19.96 219.596 20.56C219.556 20.6 219.496 20.62 219.416 20.62C219.096 20.62 218.936 20.48 218.936 20.2C218.936 20 219.036 19.8 219.236 19.6C219.556 19.32 219.816 18.98 220.016 18.58C220.216 18.18 220.316 17.8 220.316 17.44C220.316 16.72 219.896 16.36 219.056 16.36C218.456 16.36 217.756 16.48 216.956 16.72C216.156 16.92 215.376 17.18 214.616 17.5C213.896 17.78 213.296 18.04 212.816 18.28C211.816 18.76 210.896 19.36 210.056 20.08C209.216 20.76 208.416 21.62 207.656 22.66C207.136 23.34 206.876 23.98 206.876 24.58C206.876 25.3 207.356 25.96 208.316 26.56C209.316 27.12 210.296 27.66 211.256 28.18C212.256 28.7 213.096 29.26 213.776 29.86C214.456 30.46 214.796 31.18 214.796 32.02C214.796 32.94 214.216 34.04 213.056 35.32C212.336 36.12 211.356 36.88 210.116 37.6C208.916 38.32 207.636 38.9 206.276 39.34C204.916 39.78 203.676 40 202.556 40Z" fill="#3D3D3D"/>
</svg>
