<svg width="23" height="27" viewBox="0 0 23 27" fill="none" xmlns="http://www.w3.org/2000/svg">
<path d="M22.1055 11.585C22.1055 12.5811 21.9834 13.543 21.7393 14.4707C21.5049 15.3887 21.168 16.2578 20.7285 17.0781C20.2891 17.8984 19.7617 18.6553 19.1465 19.3486C18.541 20.0322 17.8672 20.6279 17.125 21.1357C17.2617 21.5947 17.4326 22.0244 17.6377 22.4248C17.8525 22.835 18.1016 23.1914 18.3848 23.4941C18.6777 23.8066 19 24.0508 19.3516 24.2266C19.7031 24.4023 20.084 24.4902 20.4941 24.4902C20.6699 24.4902 20.8506 24.4658 21.0361 24.417C21.2217 24.3779 21.3975 24.3047 21.5635 24.1973C21.6221 24.1484 21.6855 24.1143 21.7539 24.0947C21.832 24.0752 21.9004 24.0654 21.959 24.0654C22.1543 24.0654 22.3301 24.1338 22.4863 24.2705C22.6523 24.417 22.7354 24.6025 22.7354 24.8271C22.7354 25.1104 22.6182 25.3301 22.3838 25.4863C22.1006 25.6621 21.7979 25.7988 21.4756 25.8965C21.1533 25.9941 20.8262 26.043 20.4941 26.043C19.9277 26.043 19.4004 25.9355 18.9121 25.7207C18.4238 25.5059 17.9795 25.2129 17.5791 24.8418C17.1787 24.4707 16.8223 24.0312 16.5098 23.5234C16.207 23.0254 15.9531 22.4883 15.748 21.9121C15.084 22.2246 14.3955 22.4639 13.6826 22.6299C12.9795 22.8057 12.2471 22.8936 11.4854 22.8936C10.5186 22.8936 9.58105 22.7568 8.67285 22.4834C7.77441 22.2197 6.93457 21.8438 6.15332 21.3555C5.37207 20.8574 4.6543 20.2666 4 19.583C3.35547 18.8896 2.80371 18.1279 2.34473 17.2979C1.88574 16.458 1.5293 15.5547 1.27539 14.5879C1.02148 13.6211 0.894531 12.6201 0.894531 11.585C0.894531 10.5498 1.02148 9.54883 1.27539 8.58203C1.5293 7.61523 1.88574 6.7168 2.34473 5.88672C2.80371 5.04688 3.35547 4.28516 4 3.60156C4.6543 2.9082 5.37207 2.31738 6.15332 1.8291C6.93457 1.33105 7.77441 0.950195 8.67285 0.686523C9.58105 0.413086 10.5186 0.276367 11.4854 0.276367C12.5107 0.276367 13.4824 0.422852 14.4004 0.71582C15.3281 1.00879 16.1826 1.41406 16.9639 1.93164C17.7549 2.44922 18.4678 3.06445 19.1025 3.77734C19.7373 4.49023 20.2744 5.2666 20.7139 6.10645C21.1631 6.94629 21.5049 7.83008 21.7393 8.75781C21.9834 9.68555 22.1055 10.6279 22.1055 11.585ZM20.582 11.585C20.582 10.9209 20.4941 10.2275 20.3184 9.50488C20.1426 8.77246 19.8936 8.05957 19.5713 7.36621C19.2588 6.66309 18.8779 5.99902 18.4287 5.37402C17.9893 4.73926 17.501 4.1875 16.9639 3.71875C16.4365 3.24023 15.8701 2.86426 15.2646 2.59082C14.6592 2.30762 14.0391 2.16602 13.4043 2.16602C12.5449 2.16602 11.7686 2.29297 11.0752 2.54688C10.3818 2.80078 9.76172 3.14746 9.21484 3.58691C8.67773 4.0166 8.20898 4.5293 7.80859 5.125C7.4082 5.7207 7.07617 6.36035 6.8125 7.04395C6.55859 7.71777 6.36816 8.42578 6.24121 9.16797C6.11426 9.90039 6.05078 10.6279 6.05078 11.3506C6.05078 12.1416 6.09473 12.9326 6.18262 13.7236C6.28027 14.5146 6.43652 15.2764 6.65137 16.0088C6.87598 16.7314 7.15918 17.4102 7.50098 18.0449C7.85254 18.6699 8.28223 19.2168 8.79004 19.6855C9.29785 20.1445 9.88867 20.5059 10.5625 20.7695C11.2461 21.0332 12.0225 21.165 12.8916 21.165C13.3311 21.165 13.7559 21.1113 14.166 21.0039C14.5859 20.8867 14.9912 20.7305 15.3818 20.5352C15.1475 19.793 14.8105 19.2266 14.3711 18.8359C13.9316 18.4453 13.3604 18.25 12.6572 18.25C12.4326 18.25 12.2178 18.2695 12.0127 18.3086C11.8174 18.3477 11.6367 18.3916 11.4707 18.4404C11.2852 18.4893 11.1094 18.5479 10.9434 18.6162C10.8262 18.6748 10.7188 18.7041 10.6211 18.7041C10.4355 18.7041 10.2598 18.6309 10.0938 18.4844C9.92773 18.3281 9.84473 18.1377 9.84473 17.9131C9.84473 17.7764 9.88379 17.6445 9.96191 17.5176C10.04 17.3906 10.1475 17.293 10.2842 17.2246C10.2939 17.2148 10.3623 17.1855 10.4893 17.1367C10.626 17.0781 10.8018 17.0195 11.0166 16.9609C11.2314 16.9023 11.4805 16.8486 11.7637 16.7998C12.0469 16.751 12.3447 16.7266 12.6572 16.7266C13.6338 16.7266 14.459 16.9854 15.1328 17.5029C15.8164 18.0205 16.3438 18.748 16.7148 19.6855C17.2812 19.2168 17.7988 18.6699 18.2676 18.0449C18.7461 17.4199 19.1562 16.751 19.498 16.0381C19.8398 15.3252 20.1035 14.5879 20.2891 13.8262C20.4844 13.0645 20.582 12.3174 20.582 11.585Z" fill="black"/>
</svg>
