<svg width="293" height="48" viewBox="0 0 293 48" fill="none" xmlns="http://www.w3.org/2000/svg">
<path d="M42.02 47.92C41.62 47.92 41.22 47.9 40.82 47.86C40.42 47.82 40 47.76 39.56 47.68C36.84 47.16 34.38 46.26 32.18 44.98C29.98 43.7 28 42.2 26.24 40.48C24.52 38.8 22.94 37.02 21.5 35.14C20.1 33.26 18.82 31.46 17.66 29.74C16.5 27.98 15.42 26.44 14.42 25.12C14.34 24.92 14.24 24.86 14.12 24.94C14.04 25.02 14 25.06 14 25.06C13.12 26.74 12.3 28.32 11.54 29.8C10.82 31.24 10.28 32.4 9.92 33.28C9.6 34.16 9.44 34.78 9.44 35.14C9.44 35.7 9.66 35.98 10.1 35.98C10.66 35.98 11.26 35.6 11.9 34.84C12.34 34.32 12.74 33.84 13.1 33.4C13.5 32.92 13.84 32.72 14.12 32.8C14.16 32.84 14.18 32.9 14.18 32.98C14.18 33.18 14.04 33.46 13.76 33.82C13.48 34.14 13.32 34.32 13.28 34.36C13 34.76 12.62 35.3 12.14 35.98C11.7 36.66 11.22 37.26 10.7 37.78C10.22 38.34 9.7 38.62 9.14 38.62C9.06 38.62 8.82 38.58 8.42 38.5C8.06 38.42 7.7 38.32 7.34 38.2C7.02 38.08 6.84 37.94 6.8 37.78C6.72 37.02 6.9 35.96 7.34 34.6C7.82 33.2 8.46 31.66 9.26 29.98C10.06 28.3 10.88 26.66 11.72 25.06C11.08 24.9 10.62 24.76 10.34 24.64C9.94 24.36 9.74 23.98 9.74 23.5C9.74 23.1 9.9 22.74 10.22 22.42C10.54 22.1 11.02 21.94 11.66 21.94C11.86 21.94 12.1 21.98 12.38 22.06C12.66 22.14 12.88 22.28 13.04 22.48C13.72 21.28 14.32 20.18 14.84 19.18C15.4 18.18 15.8 17.4 16.04 16.84C16.28 16.4 16.44 16.04 16.52 15.76C16.6 15.44 16.64 15.2 16.64 15.04C16.64 14.8 16.6 14.6 16.52 14.44C16.6 13.96 16.88 13.32 17.36 12.52C17.88 11.72 18.52 10.92 19.28 10.12C20.04 9.32 20.86 8.66 21.74 8.14C22.62 7.58 23.44 7.3 24.2 7.3C24.44 7.3 24.8 7.38 25.28 7.54C25.8 7.66 26.28 7.86 26.72 8.14C27.2 8.42 27.5 8.82 27.62 9.34C27.66 9.46 27.68 9.58 27.68 9.7C27.68 9.82 27.64 9.88 27.56 9.88C27.48 9.88 27.36 9.86 27.2 9.82C27.08 9.74 26.98 9.7 26.9 9.7C25.78 9.7 24.52 10.38 23.12 11.74C21.76 13.06 20.36 14.76 18.92 16.84C17.52 18.92 16.2 21.08 14.96 23.32C15.16 23.36 15.38 23.42 15.62 23.5C15.9 23.54 16.22 23.56 16.58 23.56C16.74 23.56 16.88 23.56 17 23.56C17.16 23.56 17.32 23.54 17.48 23.5C20.04 23.22 22.64 22.72 25.28 22C27.96 21.28 30.46 20.34 32.78 19.18C35.1 18.02 37.02 16.66 38.54 15.1C39.94 13.62 40.64 12.1 40.64 10.54C40.64 9.38 40.2 8.3 39.32 7.3C38.44 6.3 37.06 5.54 35.18 5.02C34.06 4.7 32.78 4.46 31.34 4.3C29.94 4.14 28.42 4.06 26.78 4.06C24.22 4.06 21.58 4.28 18.86 4.72C16.18 5.16 13.66 5.84 11.3 6.76C8.94 7.64 6.96 8.76 5.36 10.12C3.76 11.48 2.8 13.1 2.48 14.98C2.36 15.94 2.54 16.7 3.02 17.26C3.5 17.82 4.08 18.26 4.76 18.58C5.48 18.86 6.04 19.12 6.44 19.36C6.72 19.6 6.86 19.8 6.86 19.96C6.86 20.24 6.6 20.34 6.08 20.26C5.52 20.14 4.82 19.86 3.98 19.42C3.18 18.98 2.46 18.38 1.82 17.62C1.22 16.82 0.92 15.9 0.92 14.86C0.92 14.7 0.92 14.54 0.92 14.38C0.96 14.22 1 14.06 1.04 13.9C1.04 13.86 1.02 13.74 0.98 13.54C0.98 13.3 0.98 13.1 0.98 12.94C1.22 11.7 1.82 10.54 2.78 9.46C3.78 8.34 4.9 7.36 6.14 6.52C7.42 5.64 8.6 4.94 9.68 4.42C11.56 3.5 13.82 2.78 16.46 2.26C19.1 1.7 21.86 1.42 24.74 1.42C26.5 1.42 28.24 1.54 29.96 1.78C31.72 2.02 33.42 2.4 35.06 2.92C37.34 3.68 39.1 4.86 40.34 6.46C41.62 8.02 42.2 9.66 42.08 11.38C41.96 13.02 41.38 14.5 40.34 15.82C39.34 17.14 38.04 18.3 36.44 19.3C34.88 20.26 33.14 21.1 31.22 21.82C29.34 22.5 27.44 23.06 25.52 23.5C23.96 23.82 22.32 24.08 20.6 24.28C18.88 24.48 17.26 24.62 15.74 24.7C17.46 26.82 19.16 28.96 20.84 31.12C22.56 33.24 24.38 35.24 26.3 37.12C28.26 39 30.4 40.6 32.72 41.92C35.04 43.28 37.66 44.24 40.58 44.8C41.18 44.92 41.8 44.98 42.44 44.98C43.48 44.98 44.5 44.82 45.5 44.5C46.54 44.18 47.4 43.68 48.08 43C48.76 42.32 49.1 41.42 49.1 40.3C49.1 40.1 49.08 39.9 49.04 39.7C49.04 39.5 49.02 39.3 48.98 39.1C48.98 39.02 48.96 38.96 48.92 38.92C48.92 38.88 48.92 38.84 48.92 38.8C48.92 38.44 49.06 38.26 49.34 38.26C49.74 38.26 50 38.56 50.12 39.16C50.24 39.76 50.3 40.32 50.3 40.84C50.3 41.44 50.24 42 50.12 42.52C50.04 43.04 49.92 43.52 49.76 43.96C49.4 45.08 48.48 46.02 47 46.78C45.56 47.54 43.9 47.92 42.02 47.92ZM45.1452 37.9C43.3452 37.9 41.7852 37.48 40.4652 36.64C39.1452 35.8 38.4852 34.52 38.4852 32.8C38.4852 31.88 38.7652 30.76 39.3252 29.44C39.7252 28.52 40.4652 27.46 41.5452 26.26C42.6252 25.06 43.8852 23.9 45.3252 22.78C46.7652 21.62 48.2252 20.68 49.7052 19.96C51.1852 19.2 52.5252 18.82 53.7252 18.82C54.1652 18.82 54.5652 18.88 54.9252 19C55.6052 19.24 56.0652 19.62 56.3052 20.14C56.5852 20.66 56.7252 21.2 56.7252 21.76C56.7252 22.28 56.6452 22.78 56.4852 23.26C56.3252 23.74 56.1252 24.16 55.8852 24.52C55.1652 25.6 54.1252 26.56 52.7652 27.4C51.4452 28.24 50.0852 28.9 48.6852 29.38C47.3252 29.86 46.2052 30.14 45.3252 30.22H45.2052C44.6852 30.22 44.4252 30.06 44.4252 29.74C44.4252 29.54 44.5852 29.44 44.9052 29.44C45.8652 29.36 47.0652 28.92 48.5052 28.12C49.9852 27.28 51.2852 26.42 52.4052 25.54C52.8852 25.14 53.4452 24.58 54.0852 23.86C54.7652 23.14 55.1052 22.44 55.1052 21.76C55.1052 21.04 54.7652 20.68 54.0852 20.68C53.7252 20.68 53.3452 20.76 52.9452 20.92C52.5852 21.08 52.2852 21.2 52.0452 21.28C50.8852 21.84 49.6052 22.72 48.2052 23.92C46.8052 25.08 45.5252 26.4 44.3652 27.88C43.2452 29.32 42.4652 30.78 42.0252 32.26C41.9052 32.58 41.8252 32.9 41.7852 33.22C41.7452 33.5 41.7252 33.78 41.7252 34.06C41.7252 35.02 42.0252 35.7 42.6252 36.1C43.2652 36.5 44.0252 36.7 44.9052 36.7C46.2252 36.7 47.5852 36.42 48.9852 35.86C50.3852 35.26 51.7452 34.5 53.0652 33.58C54.3852 32.66 55.5852 31.68 56.6652 30.64C57.7852 29.56 58.7252 28.52 59.4852 27.52C59.6052 27.36 59.7452 27.28 59.9052 27.28C60.0652 27.24 60.1652 27.26 60.2052 27.34C60.3652 27.38 60.4452 27.5 60.4452 27.7C60.4452 27.86 60.4052 28.02 60.3252 28.18C59.2052 29.74 57.8452 31.26 56.2452 32.74C54.6852 34.22 52.9452 35.46 51.0252 36.46C49.1452 37.42 47.1852 37.9 45.1452 37.9ZM71.9253 37.66C71.2053 37.78 70.4853 37.84 69.7653 37.84C68.0053 37.84 66.5453 37.42 65.3853 36.58C64.2253 35.74 63.6453 34.52 63.6453 32.92C63.6453 31.96 63.9253 30.8 64.4853 29.44C64.8853 28.52 65.6253 27.46 66.7053 26.26C67.7853 25.06 69.0453 23.9 70.4853 22.78C71.9253 21.62 73.3853 20.68 74.8653 19.96C76.3453 19.2 77.6853 18.82 78.8853 18.82C79.3253 18.82 79.7253 18.88 80.0853 19C80.5253 19.16 80.9053 19.38 81.2253 19.66C81.5453 19.94 81.7053 20.36 81.7053 20.92C81.7053 21.04 81.7053 21.16 81.7053 21.28C81.7053 21.4 81.6653 21.54 81.5853 21.7C81.5853 21.82 81.4853 22.08 81.2853 22.48C81.1253 22.88 80.9253 23.24 80.6853 23.56C80.4853 23.84 80.3053 23.9 80.1453 23.74C79.9853 23.62 79.9053 23.46 79.9053 23.26C79.9053 23.06 79.9453 22.84 80.0253 22.6C80.1453 22.32 80.2053 22.08 80.2053 21.88C80.2053 21.6 80.1253 21.34 79.9653 21.1C79.8453 20.82 79.6253 20.68 79.3053 20.68C78.5453 20.68 77.5653 21.02 76.3653 21.7C75.1653 22.38 73.9253 23.3 72.6453 24.46C71.4053 25.58 70.2853 26.82 69.2853 28.18C68.2853 29.54 67.5853 30.9 67.1853 32.26C67.0653 32.58 66.9853 32.9 66.9453 33.22C66.9053 33.5 66.8853 33.78 66.8853 34.06C66.8853 34.94 67.1653 35.58 67.7253 35.98C68.3253 36.34 69.0453 36.52 69.8853 36.52C70.8053 36.52 71.7453 36.38 72.7053 36.1C75.4253 35.3 77.6253 34.2 79.3053 32.8C81.0253 31.4 82.7453 29.6 84.4653 27.4C84.6253 27.2 84.7653 27.12 84.8853 27.16C85.0053 27.2 85.1053 27.22 85.1853 27.22C85.3053 27.26 85.3653 27.38 85.3653 27.58C85.3653 27.66 85.3453 27.76 85.3053 27.88C85.2653 28 85.2253 28.1 85.1853 28.18C83.4653 30.5 81.5653 32.54 79.4853 34.3C77.4053 36.02 74.8853 37.14 71.9253 37.66ZM94.2167 37.66C93.0967 37.66 92.1167 37.4 91.2767 36.88C89.8767 36.04 89.1767 34.52 89.1767 32.32C89.1767 31.4 89.3367 30.34 89.6567 29.14C89.9367 28.14 90.4367 27.06 91.1567 25.9C91.8767 24.7 92.7167 23.56 93.6767 22.48C94.6767 21.4 95.7567 20.52 96.9167 19.84C98.0767 19.16 99.2367 18.82 100.397 18.82C100.877 18.82 101.297 18.88 101.657 19C102.137 19.16 102.537 19.46 102.857 19.9C103.217 20.3 103.397 20.82 103.397 21.46C103.397 22.14 103.217 22.52 102.857 22.6C102.537 22.68 102.377 22.6 102.377 22.36C102.377 22.28 102.377 22.2 102.377 22.12C102.417 22.04 102.437 21.98 102.437 21.94C102.437 21.62 102.337 21.34 102.137 21.1C101.977 20.82 101.657 20.68 101.177 20.68C100.537 20.68 99.7367 21.02 98.7767 21.7C97.8567 22.38 96.8967 23.3 95.8967 24.46C94.9367 25.58 94.0767 26.82 93.3167 28.18C92.5967 29.54 92.1167 30.9 91.8767 32.26C91.8367 32.46 91.7967 32.66 91.7567 32.86C91.7567 33.02 91.7567 33.2 91.7567 33.4C91.7567 34.32 91.9567 35.1 92.3567 35.74C92.7967 36.34 93.4767 36.64 94.3967 36.64C95.5167 36.64 96.5967 36.22 97.6367 35.38C98.6767 34.5 99.5967 33.46 100.397 32.26C101.237 31.06 101.857 30 102.257 29.08C102.577 28.36 102.797 27.74 102.917 27.22C103.037 26.7 103.097 26.26 103.097 25.9C103.097 25.58 103.057 25.3 102.977 25.06C102.937 24.82 102.877 24.62 102.797 24.46C102.717 24.22 102.677 24.04 102.677 23.92C102.677 23.6 102.797 23.34 103.037 23.14C103.317 22.94 103.597 22.84 103.877 22.84C104.117 22.84 104.377 22.92 104.657 23.08C104.977 23.16 105.417 23.22 105.977 23.26C106.537 23.3 107.137 23.32 107.777 23.32C108.457 23.32 109.137 23.3 109.817 23.26C110.537 23.22 111.157 23.14 111.677 23.02C111.757 22.98 111.877 22.96 112.037 22.96C112.317 22.96 112.457 23.04 112.457 23.2C112.457 23.36 112.317 23.5 112.037 23.62C110.637 24.26 109.377 24.6 108.257 24.64C107.177 24.68 106.237 24.7 105.437 24.7C105.517 25.7 105.297 26.78 104.777 27.94C104.257 29.06 103.717 30.06 103.157 30.94C102.477 31.94 101.697 32.96 100.817 34C99.9367 35.04 98.9567 35.92 97.8767 36.64C96.7967 37.32 95.5767 37.66 94.2167 37.66ZM115.318 37.78C114.998 37.78 114.898 37.64 115.018 37.36C115.178 37.08 115.458 36.38 115.858 35.26C116.298 34.1 116.778 32.74 117.298 31.18C117.858 29.62 118.398 28.12 118.918 26.68C118.518 27.28 118.078 27.86 117.598 28.42C117.158 28.98 116.778 29.44 116.458 29.8C116.338 29.92 116.258 29.98 116.218 29.98C116.098 29.98 116.038 29.86 116.038 29.62C116.038 29.14 116.158 28.7 116.398 28.3C117.238 27.22 117.878 26.38 118.318 25.78C118.758 25.14 119.118 24.58 119.398 24.1C119.718 23.58 120.038 23 120.358 22.36C120.438 21.92 120.578 21.38 120.778 20.74C121.018 20.1 121.558 19.78 122.398 19.78C123.638 19.78 124.258 20.04 124.258 20.56C124.258 20.72 124.218 20.9 124.138 21.1C124.058 21.26 123.978 21.44 123.898 21.64C123.418 22.72 122.898 23.96 122.338 25.36C121.778 26.76 121.258 28.08 120.778 29.32C120.338 30.56 119.998 31.52 119.758 32.2C120.198 31.64 120.858 30.86 121.738 29.86C122.618 28.82 123.618 27.7 124.738 26.5C125.898 25.26 127.078 24.1 128.278 23.02C129.518 21.9 130.678 20.98 131.758 20.26C132.838 19.54 133.758 19.18 134.518 19.18C135.438 19.18 135.898 19.7 135.898 20.74C135.898 21.54 135.578 22.58 134.938 23.86C134.658 24.46 134.278 25.28 133.798 26.32C133.318 27.32 132.938 28.08 132.658 28.6C133.378 27.96 134.198 27.26 135.118 26.5C136.038 25.7 136.998 24.96 137.998 24.28C139.038 23.6 139.998 23.1 140.878 22.78C141.078 22.7 141.478 22.58 142.078 22.42C142.678 22.22 143.198 22.12 143.638 22.12C144.238 22.12 144.538 22.32 144.538 22.72C144.538 23 144.398 23.3 144.118 23.62C143.438 24.66 142.818 25.78 142.258 26.98C141.738 28.14 141.318 29.24 140.998 30.28C140.678 31.32 140.478 32.16 140.398 32.8C140.358 32.96 140.338 33.12 140.338 33.28C140.338 33.4 140.338 33.54 140.338 33.7C140.338 35.3 140.858 36.1 141.898 36.1C142.538 36.1 143.358 35.76 144.358 35.08C145.358 34.36 146.378 33.5 147.418 32.5C148.458 31.46 149.398 30.48 150.238 29.56C151.118 28.6 151.718 27.88 152.038 27.4C152.158 27.28 152.278 27.22 152.398 27.22C152.558 27.22 152.678 27.28 152.758 27.4C152.878 27.52 152.898 27.68 152.818 27.88C152.458 28.56 151.838 29.42 150.958 30.46C150.118 31.46 149.158 32.48 148.078 33.52C147.038 34.52 146.018 35.38 145.018 36.1C144.497 36.5 143.838 36.84 143.038 37.12C142.278 37.44 141.498 37.6 140.698 37.6C139.978 37.6 139.318 37.44 138.718 37.12C138.158 36.8 137.738 36.2 137.458 35.32C137.338 34.96 137.278 34.5 137.278 33.94C137.278 33.06 137.398 32.06 137.638 30.94C137.878 29.82 138.138 28.88 138.418 28.12C138.618 27.56 138.878 26.94 139.198 26.26C139.558 25.54 139.878 24.94 140.158 24.46C138.918 24.94 137.718 25.66 136.558 26.62C135.398 27.58 134.338 28.56 133.378 29.56C132.458 30.52 131.678 31.32 131.038 31.96C130.878 32.4 130.558 32.76 130.078 33.04C129.638 33.32 129.218 33.46 128.818 33.46C128.218 33.46 127.918 33.2 127.918 32.68C127.918 32.48 127.978 32.24 128.098 31.96C128.498 31 128.938 30.02 129.418 29.02C129.938 27.98 130.398 27.04 130.798 26.2C131.238 25.36 131.538 24.78 131.698 24.46C132.018 23.9 132.178 23.46 132.178 23.14C132.178 22.82 132.038 22.66 131.758 22.66C131.478 22.66 131.018 22.84 130.378 23.2C129.738 23.56 128.898 24.2 127.858 25.12C127.018 25.88 126.098 26.88 125.098 28.12C124.098 29.32 123.138 30.56 122.218 31.84C121.298 33.12 120.478 34.22 119.758 35.14C119.078 36.06 118.598 36.6 118.318 36.76C118.078 36.88 117.598 37.08 116.878 37.36C116.198 37.64 115.678 37.78 115.318 37.78ZM156.298 37.78C155.978 37.78 155.878 37.64 155.998 37.36C156.158 37.08 156.438 36.38 156.838 35.26C157.278 34.1 157.758 32.74 158.278 31.18C158.838 29.62 159.378 28.12 159.898 26.68C159.498 27.28 159.058 27.86 158.578 28.42C158.138 28.98 157.758 29.44 157.438 29.8C157.318 29.92 157.238 29.98 157.198 29.98C157.078 29.98 157.018 29.86 157.018 29.62C157.018 29.14 157.138 28.7 157.378 28.3C158.218 27.22 158.858 26.38 159.298 25.78C159.738 25.14 160.098 24.58 160.378 24.1C160.698 23.58 161.018 23 161.338 22.36C161.418 21.92 161.558 21.38 161.758 20.74C161.998 20.1 162.538 19.78 163.378 19.78C164.618 19.78 165.238 20.04 165.238 20.56C165.238 20.72 165.198 20.9 165.118 21.1C165.038 21.26 164.958 21.44 164.878 21.64C164.398 22.72 163.878 23.96 163.318 25.36C162.758 26.76 162.238 28.08 161.758 29.32C161.318 30.56 160.978 31.52 160.738 32.2C161.178 31.64 161.838 30.86 162.718 29.86C163.598 28.82 164.598 27.7 165.718 26.5C166.878 25.26 168.058 24.1 169.258 23.02C170.498 21.9 171.658 20.98 172.738 20.26C173.818 19.54 174.738 19.18 175.498 19.18C176.418 19.18 176.878 19.7 176.878 20.74C176.878 21.54 176.558 22.58 175.918 23.86C175.638 24.46 175.258 25.28 174.778 26.32C174.298 27.32 173.918 28.08 173.638 28.6C174.358 27.96 175.178 27.26 176.098 26.5C177.018 25.7 177.978 24.96 178.978 24.28C180.018 23.6 180.978 23.1 181.858 22.78C182.058 22.7 182.458 22.58 183.058 22.42C183.658 22.22 184.178 22.12 184.618 22.12C185.218 22.12 185.518 22.32 185.518 22.72C185.518 23 185.378 23.3 185.098 23.62C184.418 24.66 183.798 25.78 183.238 26.98C182.718 28.14 182.298 29.24 181.978 30.28C181.658 31.32 181.458 32.16 181.378 32.8C181.338 32.96 181.318 33.12 181.318 33.28C181.318 33.4 181.318 33.54 181.318 33.7C181.318 35.3 181.838 36.1 182.878 36.1C183.518 36.1 184.338 35.76 185.338 35.08C186.338 34.36 187.358 33.5 188.398 32.5C189.438 31.46 190.378 30.48 191.218 29.56C192.098 28.6 192.698 27.88 193.018 27.4C193.138 27.28 193.258 27.22 193.378 27.22C193.538 27.22 193.658 27.28 193.738 27.4C193.858 27.52 193.878 27.68 193.798 27.88C193.438 28.56 192.818 29.42 191.938 30.46C191.098 31.46 190.138 32.48 189.058 33.52C188.018 34.52 186.998 35.38 185.998 36.1C185.478 36.5 184.818 36.84 184.018 37.12C183.258 37.44 182.478 37.6 181.678 37.6C180.958 37.6 180.298 37.44 179.698 37.12C179.138 36.8 178.718 36.2 178.438 35.32C178.318 34.96 178.258 34.5 178.258 33.94C178.258 33.06 178.378 32.06 178.618 30.94C178.858 29.82 179.118 28.88 179.398 28.12C179.598 27.56 179.858 26.94 180.178 26.26C180.538 25.54 180.858 24.94 181.138 24.46C179.898 24.94 178.698 25.66 177.538 26.62C176.378 27.58 175.318 28.56 174.358 29.56C173.438 30.52 172.658 31.32 172.018 31.96C171.858 32.4 171.538 32.76 171.058 33.04C170.618 33.32 170.198 33.46 169.798 33.46C169.198 33.46 168.898 33.2 168.898 32.68C168.898 32.48 168.958 32.24 169.078 31.96C169.478 31 169.918 30.02 170.398 29.02C170.918 27.98 171.378 27.04 171.778 26.2C172.218 25.36 172.518 24.78 172.678 24.46C172.998 23.9 173.158 23.46 173.158 23.14C173.158 22.82 173.018 22.66 172.738 22.66C172.458 22.66 171.998 22.84 171.358 23.2C170.718 23.56 169.878 24.2 168.838 25.12C167.998 25.88 167.078 26.88 166.078 28.12C165.078 29.32 164.118 30.56 163.198 31.84C162.278 33.12 161.458 34.22 160.738 35.14C160.058 36.06 159.578 36.6 159.298 36.76C159.058 36.88 158.578 37.08 157.858 37.36C157.178 37.64 156.658 37.78 156.298 37.78ZM203.758 37.9C201.958 37.9 200.398 37.48 199.078 36.64C197.758 35.8 197.098 34.52 197.098 32.8C197.098 31.88 197.378 30.76 197.938 29.44C198.338 28.52 199.078 27.46 200.158 26.26C201.238 25.06 202.498 23.9 203.938 22.78C205.378 21.62 206.838 20.68 208.318 19.96C209.798 19.2 211.138 18.82 212.338 18.82C212.778 18.82 213.178 18.88 213.538 19C214.218 19.24 214.678 19.62 214.918 20.14C215.198 20.66 215.338 21.2 215.338 21.76C215.338 22.28 215.258 22.78 215.098 23.26C214.938 23.74 214.738 24.16 214.498 24.52C213.778 25.6 212.738 26.56 211.378 27.4C210.058 28.24 208.698 28.9 207.298 29.38C205.938 29.86 204.818 30.14 203.938 30.22H203.818C203.298 30.22 203.038 30.06 203.038 29.74C203.038 29.54 203.198 29.44 203.518 29.44C204.478 29.36 205.678 28.92 207.118 28.12C208.598 27.28 209.898 26.42 211.018 25.54C211.498 25.14 212.058 24.58 212.698 23.86C213.378 23.14 213.718 22.44 213.718 21.76C213.718 21.04 213.378 20.68 212.698 20.68C212.338 20.68 211.958 20.76 211.558 20.92C211.198 21.08 210.898 21.2 210.658 21.28C209.498 21.84 208.218 22.72 206.818 23.92C205.418 25.08 204.138 26.4 202.978 27.88C201.858 29.32 201.078 30.78 200.638 32.26C200.518 32.58 200.438 32.9 200.398 33.22C200.358 33.5 200.338 33.78 200.338 34.06C200.338 35.02 200.638 35.7 201.238 36.1C201.878 36.5 202.638 36.7 203.518 36.7C204.838 36.7 206.198 36.42 207.598 35.86C208.998 35.26 210.358 34.5 211.678 33.58C212.998 32.66 214.198 31.68 215.278 30.64C216.398 29.56 217.338 28.52 218.098 27.52C218.218 27.36 218.358 27.28 218.518 27.28C218.678 27.24 218.778 27.26 218.818 27.34C218.978 27.38 219.058 27.5 219.058 27.7C219.058 27.86 219.018 28.02 218.938 28.18C217.818 29.74 216.458 31.26 214.858 32.74C213.298 34.22 211.558 35.46 209.638 36.46C207.758 37.42 205.798 37.9 203.758 37.9ZM220.939 37.78C220.659 37.78 220.579 37.64 220.699 37.36C220.819 37.12 221.039 36.58 221.359 35.74C221.679 34.86 222.039 33.82 222.439 32.62C222.879 31.42 223.319 30.18 223.759 28.9C224.199 27.62 224.599 26.42 224.959 25.3C225.359 24.18 225.679 23.3 225.919 22.66C225.999 22.42 226.079 22.08 226.159 21.64C226.239 21.16 226.399 20.74 226.639 20.38C226.919 19.98 227.379 19.78 228.019 19.78C229.219 19.78 229.819 20.06 229.819 20.62C229.819 20.82 229.719 21.16 229.519 21.64C229.039 22.72 228.519 23.96 227.959 25.36C227.399 26.76 226.899 28.08 226.459 29.32C226.019 30.56 225.679 31.52 225.439 32.2C225.839 31.64 226.479 30.84 227.359 29.8C228.279 28.76 229.299 27.64 230.419 26.44C231.539 25.24 232.699 24.08 233.899 22.96C235.139 21.84 236.279 20.94 237.319 20.26C238.399 19.54 239.319 19.18 240.079 19.18C241.039 19.18 241.519 19.7 241.519 20.74C241.519 21.1 241.419 21.64 241.219 22.36C240.859 23.36 240.399 24.34 239.839 25.3C239.279 26.22 238.779 27.2 238.339 28.24C237.579 30.12 237.139 31.64 237.019 32.8C236.979 32.96 236.959 33.12 236.959 33.28C236.959 33.4 236.959 33.54 236.959 33.7C236.959 35.3 237.499 36.1 238.579 36.1C239.179 36.1 239.979 35.74 240.979 35.02C241.979 34.3 242.999 33.44 244.039 32.44C245.119 31.44 246.079 30.48 246.919 29.56C247.759 28.6 248.339 27.88 248.659 27.4C248.779 27.28 248.899 27.22 249.019 27.22C249.179 27.22 249.299 27.28 249.379 27.4C249.499 27.52 249.519 27.68 249.439 27.88C249.079 28.56 248.459 29.42 247.579 30.46C246.739 31.46 245.799 32.48 244.759 33.52C243.719 34.52 242.699 35.38 241.699 36.1C241.099 36.5 240.359 36.86 239.479 37.18C238.599 37.5 237.719 37.64 236.839 37.6C235.719 37.48 234.919 37.1 234.439 36.46C233.959 35.78 233.719 34.98 233.719 34.06C233.719 32.98 233.919 31.84 234.319 30.64C234.759 29.4 235.239 28.24 235.759 27.16C236.279 26.08 236.699 25.26 237.019 24.7C237.339 24.06 237.499 23.56 237.499 23.2C237.499 22.88 237.359 22.72 237.079 22.72C236.799 22.72 236.379 22.9 235.819 23.26C235.259 23.62 234.499 24.24 233.539 25.12C232.659 25.88 231.719 26.88 230.719 28.12C229.719 29.32 228.739 30.56 227.779 31.84C226.859 33.12 226.039 34.22 225.319 35.14C224.639 36.06 224.159 36.6 223.879 36.76C223.679 36.88 223.219 37.08 222.499 37.36C221.819 37.64 221.299 37.78 220.939 37.78ZM269.796 43.54C268.756 43.38 268.016 42.88 267.576 42.04C267.136 41.2 266.916 40.16 266.916 38.92C266.916 37.44 267.116 35.84 267.516 34.12C267.956 32.4 268.456 30.78 269.016 29.26C269.576 27.74 270.016 26.58 270.336 25.78C269.416 26.86 268.356 28.04 267.156 29.32C265.996 30.6 264.776 31.82 263.496 32.98C262.216 34.14 260.976 35.1 259.776 35.86C258.616 36.58 257.596 36.94 256.716 36.94C256.076 36.94 255.396 36.76 254.676 36.4C253.956 36 253.376 35.5 252.936 34.9C252.336 34.1 252.036 33.28 252.036 32.44C252.036 31.36 252.396 30.24 253.116 29.08C253.876 27.92 254.836 26.8 255.996 25.72C257.196 24.6 258.456 23.6 259.776 22.72C261.136 21.8 262.416 21.04 263.616 20.44C264.856 19.8 265.856 19.38 266.616 19.18C267.016 19.1 267.436 19.02 267.876 18.94C268.316 18.86 268.776 18.82 269.256 18.82C269.856 18.82 270.456 18.9 271.056 19.06C271.656 19.18 272.156 19.4 272.556 19.72L272.796 19.9C273.756 17.7 274.816 15.48 275.976 13.24C277.136 10.96 278.376 8.88 279.696 7C281.016 5.12 282.416 3.62 283.896 2.5C285.376 1.34 286.916 0.759998 288.516 0.759998C288.716 0.759998 288.916 0.779998 289.116 0.819997C289.316 0.819997 289.496 0.839997 289.656 0.879997C290.656 1.08 291.356 1.44 291.756 1.96C292.196 2.44 292.416 3.02 292.416 3.7C292.416 4.18 292.316 4.7 292.116 5.26C291.956 5.78 291.716 6.3 291.396 6.82C290.516 8.38 289.356 9.92 287.916 11.44C286.516 12.96 284.976 14.44 283.296 15.88C281.616 17.28 279.936 18.64 278.256 19.96C276.616 21.28 275.116 22.52 273.756 23.68C273.156 25.08 272.556 26.72 271.956 28.6C271.356 30.48 270.856 32.08 270.456 33.4C270.216 34.36 270.016 35.26 269.856 36.1C269.736 36.94 269.676 37.72 269.676 38.44C269.676 39.76 269.916 40.84 270.396 41.68C270.796 42.32 271.296 42.64 271.896 42.64C272.336 42.64 272.736 42.48 273.096 42.16C273.256 42.08 273.396 41.98 273.516 41.86C273.676 41.74 273.856 41.62 274.056 41.5C274.296 41.38 274.496 41.32 274.656 41.32C274.936 41.32 274.956 41.54 274.716 41.98C274.596 42.1 274.456 42.24 274.296 42.4C274.136 42.6 273.956 42.8 273.756 43C273.476 43.2 273.056 43.36 272.496 43.48C271.936 43.6 271.376 43.66 270.816 43.66C270.656 43.66 270.476 43.64 270.276 43.6C270.116 43.6 269.956 43.58 269.796 43.54ZM275.556 20.26C277.156 19.18 278.896 17.84 280.776 16.24C282.656 14.6 284.416 12.86 286.056 11.02C287.696 9.14 288.956 7.36 289.836 5.68C290.356 4.72 290.616 3.96 290.616 3.4C290.616 2.72 290.316 2.38 289.716 2.38C289.156 2.38 288.416 2.7 287.496 3.34C284.816 5.42 282.556 7.9 280.716 10.78C278.876 13.62 277.156 16.78 275.556 20.26ZM255.036 35.5C255.236 35.74 255.496 35.86 255.816 35.86C256.416 35.86 257.116 35.6 257.916 35.08C258.756 34.56 259.316 34.16 259.596 33.88C261.636 32.24 263.676 30.48 265.716 28.6C267.796 26.68 269.736 24.76 271.536 22.84C271.696 22.48 271.836 22.14 271.956 21.82C272.076 21.46 272.216 21.12 272.376 20.8C271.776 20.56 271.076 20.44 270.276 20.44C268.676 20.44 266.916 20.96 264.996 22C263.076 23.04 261.356 24.26 259.836 25.66C259.356 26.06 258.696 26.76 257.856 27.76C257.056 28.72 256.316 29.78 255.636 30.94C254.956 32.1 254.616 33.16 254.616 34.12C254.616 34.64 254.756 35.1 255.036 35.5Z" fill="#3D3D3D"/>
</svg>
